<?xml version="1.0" encoding="UTF-8" standalone="no"?>
<!DOCTYPE svg PUBLIC "-//W3C//DTD SVG 1.1//EN" "http://www.w3.org/Graphics/SVG/1.1/DTD/svg11.dtd">
<svg xmlns="http://www.w3.org/2000/svg">
<metadata>
This is a custom SVG webfont generated by Font Squirrel.
Copyright   : Copyright 2007 Monotype Imaging Ltd
</metadata>
<defs>
<font id="RT_VickermanRegular" horiz-adv-x="1153">
<font-face units-per-em="2048" ascent="1509" descent="-539"/>
<missing-glyph horiz-adv-x="512"/>
<glyph unicode=" " horiz-adv-x="512"/>
<glyph unicode="	" horiz-adv-x="512"/>
<glyph unicode=" " horiz-adv-x="512"/>
<glyph unicode="!" horiz-adv-x="512" d="M133 108.5q0 51.5 36 87t87 35.5t87 -35.5t36 -87t-36 -87t-87 -35.5t-87 35.5t-36 87zM160 1489h192l-24 -1079h-144z"/>
<glyph unicode="&quot;" horiz-adv-x="831" d="M139 1520h201l-41 -471h-119zM492 1520h200l-41 -471h-119z"/>
<glyph unicode="#" horiz-adv-x="1384" d="M70 420v137h288l97 375h-269v137h301l105 420h133l-104 -420h305l106 420h133l-104 -420h254v-137h-289l-94 -375h266v-137h-299l-104 -420h-133l102 420h-305l-105 -420h-133l105 420h-256zM492 557h307l94 375h-307z"/>
<glyph unicode="$" d="M86 256l129 88q98 -168 291 -192v542q-221 61 -312.5 149.5t-91.5 256.5q0 158 106.5 262t297.5 123v182h143v-182q250 -25 375 -232l-131 -84q-84 139 -244 166v-497q213 -59 316.5 -149.5t103.5 -274.5q0 -197 -114.5 -297.5t-305.5 -114.5v-256h-143v258 q-289 23 -420 252zM272 1106q0 -84 53.5 -134t180.5 -93v458q-109 -16 -171.5 -75.5t-62.5 -155.5zM649 152q104 14 176 75.5t72 173.5q0 98 -60.5 155.5t-187.5 98.5v-503z"/>
<glyph unicode="%" horiz-adv-x="1867" d="M82 1083q0 217 88 328q86 109 248 109t250 -111q86 -106 86 -326q0 -215 -88 -325q-86 -109 -248 -109q-164 0 -250 109q-86 106 -86 325zM240 1083.5q0 -165.5 45 -241.5q39 -66 133 -66t133 66q45 76 45 241.5t-45 241.5q-39 68 -133 68t-133 -68q-45 -76 -45 -241.5z M463 -31l782 1520h144l-783 -1520h-143zM1114 403q0 217 88 328q86 109 248 109t250 -111q86 -106 86 -326q0 -215 -88 -325q-86 -109 -248 -109q-164 0 -250 109q-86 106 -86 325zM1272 403.5q0 -165.5 45 -241.5q39 -66 133 -66t133 66q45 76 45 241.5t-45 241.5 q-39 68 -133 68t-133 -68q-45 -76 -45 -241.5z"/>
<glyph unicode="&amp;" horiz-adv-x="1380" d="M104 385q0 156 81 253t243 196q-174 211 -174 362q0 154 100.5 239t280.5 85q168 0 264 -79t96 -208t-77.5 -223.5t-239.5 -206.5l354 -434q90 111 135 303l156 -39q-66 -252 -184 -391l198 -242h-223l-98 119q-90 -72 -180.5 -111t-233.5 -39q-238 0 -368 115t-130 301z M287 381q0 -125 96 -191.5t223 -66.5q174 0 312 117l-388 469q-139 -94 -191 -164t-52 -164zM426 1202q0 -94 149 -276q145 96 196.5 159.5t51.5 145.5q0 66 -52 108.5t-142 42.5q-106 0 -154.5 -55t-48.5 -125z"/>
<glyph unicode="'" horiz-adv-x="479" d="M139 1520h201l-41 -471h-119z"/>
<glyph unicode="(" horiz-adv-x="737" d="M123 561q0 539 377 959h176q-197 -238 -292 -465.5t-95 -493.5q0 -264 95 -492.5t292 -463.5h-176q-190 215 -283.5 444t-93.5 512z"/>
<glyph unicode=")" horiz-adv-x="737" d="M61 -395q197 236 292.5 464t95.5 492q0 266 -95.5 493.5t-292.5 465.5h177q377 -420 376 -959q0 -283 -93 -512t-283 -444h-177z"/>
<glyph unicode="*" horiz-adv-x="890" d="M53 995l279 154l-279 154l66 110l266 -156l-4 263h129l-4 -263l266 154l66 -111l-279 -151l279 -152l-66 -110l-266 153l4 -262h-129l2 262l-264 -155z"/>
<glyph unicode="+" horiz-adv-x="1228" d="M86 674v143h457v457h143v-457h457v-143h-457v-457h-143v457h-457z"/>
<glyph unicode="," horiz-adv-x="512" d="M133 106q0 55 35 90t84 35q57 0 92 -40.5t35 -110.5q0 -180 -152 -397l-77 47q102 150 102 256q-51 2 -85 36.5t-34 83.5z"/>
<glyph unicode="-" horiz-adv-x="786" d="M82 442v164h623v-164h-623z"/>
<glyph unicode="." horiz-adv-x="512" d="M133 108.5q0 51.5 36 87t87 35.5t87 -35.5t36 -87t-36 -87t-87 -35.5t-87 35.5t-36 87z"/>
<glyph unicode="/" horiz-adv-x="837" d="M25 -31l624 1551h164l-627 -1551h-161z"/>
<glyph unicode="0" d="M106 743.5q0 143.5 9.5 249t39 210t80 170t136.5 106.5t204 41q121 0 207 -41t137.5 -106.5t80 -171t38 -210t9.5 -246.5q0 -143 -9.5 -249.5t-39 -211t-80 -170t-137.5 -105.5t-205.5 -40t-204.5 41t-136.5 105.5t-80 170t-39 210t-9.5 248zM285 743q0 -127 5 -212 t22.5 -168.5t48 -133t85 -80t129.5 -30.5q78 0 131.5 29.5t85 77.5t49 133t22.5 171t5 215t-5 214t-22.5 170t-49 133.5t-85 78t-131.5 29.5q-76 0 -129 -29.5t-84.5 -79t-49 -133.5t-22.5 -171t-5 -214z"/>
<glyph unicode="1" d="M250 1110v143q248 76 375 267h102v-1520h-170v1223q-129 -82 -307 -113z"/>
<glyph unicode="2" d="M90 1276q182 244 477 244q197 0 319 -110t122 -316q0 -160 -74 -294t-236 -284l-391 -362h729v-154h-944v152l352 337q229 217 307 334t78 269q0 125 -65.5 201.5t-198.5 76.5q-197 0 -354 -203z"/>
<glyph unicode="3" d="M82 150l113 116q139 -147 321 -147q147 0 227 83t80 238q0 135 -86 206t-241 71h-127v153h110q143 0 231.5 71t88.5 192q0 109 -70 173t-182 64q-186 0 -328 -151l-110 118q164 182 436 183q209 0 319.5 -102.5t110.5 -260.5q0 -264 -252 -352q121 -20 199.5 -117.5 t78.5 -257.5q0 -225 -129 -343t-354 -118q-260 1 -436 181z"/>
<glyph unicode="4" d="M53 348v160l715 1012h137v-1024h156v-148h-156v-379h-170v379h-682zM223 496h512v729z"/>
<glyph unicode="5" d="M96 174l129 100q106 -156 293 -155q158 0 239 96t81 258q0 158 -87 233.5t-233 75.5q-139 0 -280 -86h-84l82 793h749v-154h-610l-47 -458q109 49 239 49q213 0 331 -121t118 -332q0 -238 -125 -371t-369 -133q-283 0 -426 205z"/>
<glyph unicode="6" d="M106 653q0 180 29 330t91.5 273.5t173 193.5t259.5 70q219 0 375 -131l-98 -127q-127 109 -274 108q-322 0 -369 -536q160 111 340 110q201 0 313.5 -117.5t112.5 -341.5q0 -246 -122 -381t-345 -135q-242 0 -364 178t-122 506zM287 612q0 -231 78.5 -362t228.5 -131 q287 0 287 358q0 164 -73 240t-220 76q-133 0 -299 -101q-2 -31 -2 -80z"/>
<glyph unicode="7" d="M88 1335v154h946v-152l-575 -1368h-199l596 1366h-768z"/>
<glyph unicode="8" d="M102 381q0 276 308 410q-270 137 -271 350q0 174 116 276.5t322.5 102.5t322.5 -101.5t116 -275.5q0 -215 -271 -352q307 -141 308 -410q0 -199 -133.5 -305.5t-341.5 -106.5q-219 0 -347.5 111t-128.5 301zM281 379q0 -123 76.5 -195.5t220.5 -72.5q147 0 221.5 74.5 t74.5 195.5q0 211 -296 338q-297 -129 -297 -340zM311 1157q0 -82 55.5 -148.5t211.5 -146.5q266 133 266 281q0 111 -71 173t-195 62q-127 0 -197 -63.5t-70 -157.5z"/>
<glyph unicode="9" d="M94 1004q0 246 122 381t345 135q242 0 364 -178.5t122 -505.5q0 -180 -29 -330t-91.5 -273.5t-173 -193.5t-259.5 -70q-219 0 -375 131l98 127q127 -109 275 -108q322 0 368 536q-160 -111 -340 -110q-201 0 -313.5 118t-112.5 341zM272 1012q0 -164 73 -240t220 -76 q133 0 299 101q2 31 2 80q0 231 -78.5 362t-228.5 131q-287 0 -287 -358z"/>
<glyph unicode=":" horiz-adv-x="512" d="M133 108.5q0 51.5 36 87t87 35.5t87 -35.5t36 -87t-36 -87t-87 -35.5t-87 35.5t-36 87zM133 784.5q0 51.5 36 87t87 35.5t87 -35.5t36 -87t-36 -87t-87 -35.5t-87 35.5t-36 87z"/>
<glyph unicode=";" horiz-adv-x="512" d="M133 784.5q0 51.5 36 87t87 35.5t87 -35.5t36 -87t-36 -87t-87 -35.5t-87 35.5t-36 87zM133 106q0 55 35 90t84 35q57 0 92 -40.5t35 -110.5q0 -180 -152 -397l-77 47q102 150 102 256q-51 2 -85 36.5t-34 83.5z"/>
<glyph unicode="&lt;" horiz-adv-x="1228" d="M86 682v125l1057 455v-156l-858 -363l858 -360v-156z"/>
<glyph unicode="=" horiz-adv-x="1228" d="M86 469v143h1057v-143h-1057zM86 879v143h1057v-143h-1057z"/>
<glyph unicode="&gt;" horiz-adv-x="1228" d="M86 227v156l858 360l-858 363v156l1057 -455v-125z"/>
<glyph unicode="?" horiz-adv-x="997" d="M57 1303q164 217 435 217q197 0 313.5 -96.5t116.5 -283t-119 -304.5q-94 -94 -303 -211v-226h-144v306q195 111 254 163q133 119 133 258q0 113 -63.5 178.5t-187.5 65.5q-180 0 -304 -168zM307 108.5q0 51.5 36 87t87 35.5t87 -35.5t36 -87t-36 -87t-87 -35.5t-87 35.5 t-36 87z"/>
<glyph unicode="@" horiz-adv-x="1931" d="M106 514q0 197 65 379t178.5 321.5t286.5 222.5t376 83q397 0 606 -240t209 -643q0 -117 -16.5 -220.5t-56.5 -212t-126 -172t-209 -63.5q-96 0 -165.5 41t-82.5 129q-74 -57 -169 -98t-173 -41q-164 0 -244.5 121t-80.5 293q0 94 16.5 184t54 178t93 154.5t139.5 107.5 t186 41q133 0 258 -75l107 59h51l-88 -813q-2 -12 -2 -43q0 -96 115 -96q242 0 241 518q0 348 -162.5 548.5t-502.5 200.5q-233 0 -407.5 -122.5t-259.5 -316.5t-85 -423q0 -340 178 -555t512 -215q248 0 436 49l27 -143q-186 -47 -467 -47q-395 0 -616.5 254t-221.5 655z M672 418q0 -127 41 -194.5t155 -67.5q59 0 146.5 37.5t144.5 80.5l62 582q-109 76 -223.5 76t-192.5 -89t-105.5 -198.5t-27.5 -226.5z"/>
<glyph unicode="A" horiz-adv-x="1329" d="M33 0l522 1489h219l522 -1489h-186l-143 416h-611l-143 -416h-180zM408 573h503l-252 734z"/>
<glyph unicode="B" horiz-adv-x="1298" d="M176 0v1489h414q287 0 407.5 -86t120.5 -264q0 -250 -231 -328q139 -16 223 -108.5t84 -256.5q0 -231 -145.5 -338.5t-436.5 -107.5h-436zM352 858h230q354 0 354 250q0 131 -80 179t-262 48h-242v-477zM352 158h193q86 0 148.5 5t125 22.5t101 47t63.5 82t25 123.5 q0 160 -96.5 213.5t-315.5 53.5h-244v-547z"/>
<glyph unicode="C" horiz-adv-x="1249" d="M123 743.5q0 395.5 145.5 586t450.5 190.5q330 0 465 -277l-137 -82q-104 205 -330 205q-227 0 -317.5 -154.5t-90.5 -468.5q0 -317 93.5 -468.5t316.5 -151.5q168 0 323 123l99 -127q-164 -150 -422 -150q-307 0 -451.5 189.5t-144.5 585z"/>
<glyph unicode="D" horiz-adv-x="1390" d="M176 0v1489h336q397 0 576.5 -168t179.5 -578q0 -217 -46 -362t-144.5 -229t-231.5 -118t-330 -34h-340zM352 158h168q307 0 434 132t127 455q0 326 -131 456t-430 130h-168v-1173z"/>
<glyph unicode="E" horiz-adv-x="1185" d="M176 0v1489h895v-158h-719v-471h654v-158h-654v-544h719v-158h-895z"/>
<glyph unicode="F" horiz-adv-x="1120" d="M176 0v1489h887v-158h-711v-471h641v-158h-641v-702h-176z"/>
<glyph unicode="G" horiz-adv-x="1392" d="M123 745q0 379 143.5 577t466.5 198q342 0 481 -277l-137 -82q-111 205 -346 205q-229 0 -325.5 -151.5t-96.5 -462.5q0 -154 19.5 -262.5t68.5 -194.5t139.5 -129t223.5 -43q158 0 297 74v374h-289v158h465v-614q-74 -51 -204 -98.5t-261 -47.5q-346 0 -495.5 191.5 t-149.5 584.5z"/>
<glyph unicode="H" horiz-adv-x="1402" d="M176 0v1489h176v-641h699v641h176v-1489h-176v690h-699v-690h-176z"/>
<glyph unicode="I" horiz-adv-x="528" d="M176 0v1489h176v-1489h-176z"/>
<glyph unicode="J" horiz-adv-x="827" d="M16 31l60 147q100 -55 207 -55q129 0 171 69.5t42 249.5v1047h176v-1112q0 -211 -88 -309.5t-299 -98.5q-130 1 -269 62z"/>
<glyph unicode="K" horiz-adv-x="1304" d="M176 0v1489h176v-744l662 744h225l-514 -559l543 -930h-203l-461 799l-252 -277v-522h-176z"/>
<glyph unicode="L" horiz-adv-x="1062" d="M176 0v1489h176v-1331h678v-158h-854z"/>
<glyph unicode="M" horiz-adv-x="1638" d="M176 0v1489h238l405 -825l414 825h229v-1489h-168v1253l-424 -843h-106l-420 843v-1253h-168z"/>
<glyph unicode="N" horiz-adv-x="1413" d="M176 0v1489h264l629 -1194v1194h168v-1489h-205l-688 1309v-1309h-168z"/>
<glyph unicode="O" horiz-adv-x="1413" d="M123 743q0 776 583.5 776.5t583.5 -776.5q0 -774 -583.5 -774t-583.5 774zM309 743q0 -313 89 -466.5t308.5 -153.5t308.5 153.5t89 466.5q0 315 -89 469t-308.5 154t-308.5 -154t-89 -469z"/>
<glyph unicode="P" horiz-adv-x="1212" d="M176 0v1489h408q274 0 409 -101.5t135 -340.5q0 -250 -130 -362t-423 -112h-223v-573h-176zM352 731h207q207 0 295 64.5t88 246.5q0 160 -88 224.5t-266 64.5h-236v-600z"/>
<glyph unicode="Q" horiz-adv-x="1413" d="M123 743q0 776 583.5 776.5t583.5 -776.5q0 -473 -221 -661l139 -195l-125 -88l-151 211q-98 -41 -225 -41q-584 0 -584 774zM309 743q0 -313 89 -466.5t309 -153.5q92 0 139 16l-135 189l125 88l137 -201q131 133 131 528q0 315 -89 469t-308.5 154t-308.5 -154 t-89 -469z"/>
<glyph unicode="R" horiz-adv-x="1284" d="M176 0v1489h436q262 0 395.5 -94.5t133.5 -319.5q0 -344 -269 -420l322 -655h-193l-305 631h-344v-631h-176zM352 784h281q180 0 254 67t74 218q0 143 -79 204.5t-257 61.5h-273v-551z"/>
<glyph unicode="S" horiz-adv-x="1212" d="M84 236l135 92q59 -102 148.5 -153.5t236.5 -51.5q129 0 226.5 64.5t97.5 199.5q0 117 -81 180.5t-257 106.5q-272 68 -381 161t-109 279q0 180 132.5 293t361.5 113q319 0 467 -246l-137 -86q-111 178 -332 178q-143 0 -228 -65.5t-85 -180.5q0 -102 77.5 -158.5 t274.5 -109.5q121 -33 196.5 -63.5t145 -81t102.5 -126t33 -182.5q0 -221 -139.5 -325.5t-366.5 -104.5q-368 1 -518 267z"/>
<glyph unicode="T" horiz-adv-x="1167" d="M33 1331v158h1102v-158h-463v-1331h-176v1331h-463z"/>
<glyph unicode="U" horiz-adv-x="1347" d="M156 598v891h176v-881q0 -258 75.5 -371.5t266 -113.5t266.5 113.5t76 371.5v881h176v-891q0 -182 -34 -306t-103.5 -193.5t-160.5 -99.5t-220 -30t-220.5 30t-161 99.5t-103 193.5t-33.5 306z"/>
<glyph unicode="V" horiz-adv-x="1263" d="M33 1489h186l416 -1288l416 1288h180l-496 -1489h-211z"/>
<glyph unicode="W" horiz-adv-x="1794" d="M43 1489h176l273 -1241l313 1241h184l318 -1249l274 1249h170l-346 -1489h-197l-315 1233l-311 -1233h-201z"/>
<glyph unicode="X" horiz-adv-x="1249" d="M37 0l487 745l-475 744h209l373 -612l385 612h194l-481 -735l483 -754h-208l-381 623l-392 -623h-194z"/>
<glyph unicode="Y" horiz-adv-x="1224" d="M33 1489h203l378 -709l383 709h195l-492 -885v-604h-176v596z"/>
<glyph unicode="Z" horiz-adv-x="1210" d="M78 0v154l809 1177h-774v158h983v-156l-809 -1175h829v-158h-1038z"/>
<glyph unicode="[" horiz-adv-x="718" d="M164 -395v1884h463v-133h-303v-1618h303v-133h-463z"/>
<glyph unicode="\" horiz-adv-x="837" d="M25 1520h163l625 -1551h-162z"/>
<glyph unicode="]" horiz-adv-x="718" d="M92 -262h303v1618h-303v133h463v-1884h-463v133z"/>
<glyph unicode="^" horiz-adv-x="1112" d="M143 858l338 662h150l338 -662h-152l-260 508l-262 -508h-152z"/>
<glyph unicode="_" horiz-adv-x="1024" d="M-12 -154h1048v-102h-1048v102z"/>
<glyph unicode="`" horiz-adv-x="614" d="M23 1569h221l211 -334h-131z"/>
<glyph unicode="a" horiz-adv-x="1050" d="M82 293q0 172 102.5 252t290.5 98l260 25v55q0 119 -63.5 164t-182.5 45q-166 0 -274 -96l-94 118q133 125 373 125q211 0 308 -85t97 -279v-715h-164v102q-180 -133 -348 -133q-141 0 -223 89.5t-82 234.5zM252 297q0 -182 186 -182q115 0 297 131v291l-164 -17 q-160 -16 -239.5 -62t-79.5 -161z"/>
<glyph unicode="b" horiz-adv-x="1128" d="M160 -14v1503h164v-533q61 49 148 86t159 37q201 0 300 -146.5t99 -397.5q0 -254 -119.5 -410t-324.5 -156q-135 0 -275 58l-96 -41h-55zM324 172q125 -55 245 -55q131 0 211 105.5t80 307.5q0 401 -254 402q-127 0 -282 -119v-641z"/>
<glyph unicode="c" horiz-adv-x="974" d="M98 522q0 262 116 409.5t347 147.5q248 0 365 -196l-138 -86q-80 135 -231 135q-154 0 -221.5 -104.5t-67.5 -305.5q0 -205 64.5 -305t232.5 -100q131 0 246 82l94 -123q-139 -106 -346 -107q-240 0 -350.5 147.5t-110.5 405.5z"/>
<glyph unicode="d" horiz-adv-x="1128" d="M98 514q0 254 123 409.5t328 155.5q141 0 256 -47v457h164v-1489h-164v92q-61 -49 -148.5 -86t-158.5 -37q-201 0 -300.5 146.5t-99.5 398.5zM268 518q0 -401 254 -401q127 0 283 119v643q-111 53 -240 53q-135 0 -216 -105.5t-81 -308.5z"/>
<glyph unicode="e" horiz-adv-x="1075" d="M98 516q0 262 115 412.5t350 150.5q199 0 308.5 -128t109.5 -349v-119h-713q0 -367 312 -366q141 0 256 82l92 -123q-137 -106 -342 -107q-488 0 -488 547zM272 612h547q0 158 -68.5 242t-195.5 84q-258 0 -283 -326z"/>
<glyph unicode="f" horiz-adv-x="641" d="M41 915v134h160v143q0 160 69.5 244t237.5 84q106 0 205 -39l-47 -138q-82 37 -156 37q-88 0 -116.5 -46t-28.5 -152v-133h243v-134h-243v-915h-164v915h-160z"/>
<glyph unicode="g" horiz-adv-x="1128" d="M98 522q0 231 115 394t330 163q135 0 274 -57l96 41h56v-1043q0 -221 -94.5 -318t-333.5 -97q-225 0 -379 110l86 123q70 -49 133 -70.5t160 -21.5q145 0 204.5 60.5t59.5 203.5v99q-66 -49 -152 -86t-155 -37q-203 0 -301.5 146t-98.5 390zM268 526q0 -393 254 -393 q127 0 283 119v625q-125 55 -246 55q-143 0 -217 -115t-74 -291z"/>
<glyph unicode="h" horiz-adv-x="1142" d="M160 0v1489h164v-547q86 63 185 100t173 37q162 0 235.5 -100t73.5 -299v-680h-164v625q0 162 -36.5 229.5t-147.5 67.5q-63 0 -154.5 -36t-164.5 -91v-795h-164z"/>
<glyph unicode="i" horiz-adv-x="483" d="M135 1382q0 45 31 76t76 31t75.5 -31t30.5 -76t-30.5 -75.5t-75.5 -30.5t-76 30.5t-31 75.5zM160 0v1049h164v-1049h-164z"/>
<glyph unicode="j" horiz-adv-x="505" d="M-162 -365l41 138q76 -29 158 -29q86 0 114.5 48t28.5 179v1078h164v-1094q0 -184 -65.5 -267t-247.5 -83q-105 -1 -193 30zM147 1382q0 45 31 76t76 31t75.5 -31t30.5 -76t-30.5 -75.5t-75.5 -30.5t-76 30.5t-31 75.5z"/>
<glyph unicode="k" horiz-adv-x="1030" d="M160 0v1489h164v-924l446 484h209l-395 -414l417 -635h-208l-322 518l-147 -156v-362h-164z"/>
<glyph unicode="l" horiz-adv-x="571" d="M152 301v1188h163v-1192q0 -109 22.5 -152t88.5 -43q63 0 111 19l34 -129q-82 -23 -176 -23q-143 0 -193 76t-50 256z"/>
<glyph unicode="m" horiz-adv-x="1757" d="M160 0v1049h164v-107q186 137 342 137q193 0 262 -164q219 164 379 164q299 0 299 -397v-682h-164v627q0 162 -35 228.5t-139 66.5q-53 0 -142.5 -38t-167.5 -93q6 -49 7 -109v-18v-664h-164v627q0 162 -35 228.5t-139 66.5q-53 0 -141.5 -37t-161.5 -90v-795h-164z"/>
<glyph unicode="n" horiz-adv-x="1142" d="M160 0v1049h164v-107q86 63 185 100t173 37q162 0 235.5 -100t73.5 -297v-682h-164v627q0 162 -36.5 228.5t-147.5 66.5q-63 0 -154.5 -37t-164.5 -90v-795h-164z"/>
<glyph unicode="o" horiz-adv-x="1087" d="M98 522q0 150 37 261.5t102.5 174t142.5 92t165 29.5q188 0 316 -134t128 -423q0 -285 -128 -419t-316 -134q-88 0 -165 30t-141.5 92.5t-102.5 173t-38 257.5zM268 522q0 -406 277 -405q274 0 274 405q0 410 -274 410q-277 0 -277 -410z"/>
<glyph unicode="p" horiz-adv-x="1128" d="M160 -395v1444h164v-93q61 49 148 86t159 37q201 0 300 -146.5t99 -397.5q0 -254 -123 -410t-327 -156q-141 0 -256 47v-411h-164zM324 170q111 -53 239 -53q135 0 216 105.5t81 307.5q0 401 -254 402q-127 0 -282 -119v-643z"/>
<glyph unicode="q" horiz-adv-x="1128" d="M98 514q0 254 120 409.5t325 155.5q135 0 274 -57l96 41h56v-1458h-164v487q-61 -49 -148.5 -86t-158.5 -37q-201 0 -300.5 146.5t-99.5 398.5zM268 518q0 -401 254 -401q127 0 283 119v641q-125 55 -246 55q-131 0 -211 -105.5t-80 -308.5z"/>
<glyph unicode="r" horiz-adv-x="759" d="M160 0v1049h164v-170q61 61 99 94t96.5 62.5t115.5 29.5q59 0 100 -21l-39 -163q-31 12 -73 12q-121 0 -299 -166v-727h-164z"/>
<glyph unicode="s" horiz-adv-x="972" d="M82 150l121 86q82 -123 276 -123q248 0 248 161q0 70 -55.5 102t-214.5 73q-80 20 -131.5 39.5t-104.5 54.5t-79.5 91t-26.5 132q0 156 113.5 234.5t277.5 78.5q113 0 211 -42t153 -128l-129 -86q-80 113 -243 113q-88 0 -156 -37t-68 -119q0 -23 7.5 -43t15.5 -33.5 t28.5 -27.5l32 -21.5t39.5 -16.5l38 -12q9 -3 42 -11.5t37 -8.5q74 -18 112 -28.5t97 -37t88 -55t52.5 -80t23.5 -116.5q0 -166 -120 -243t-296 -77q-119 0 -226.5 44.5t-162.5 136.5z"/>
<glyph unicode="t" horiz-adv-x="745" d="M53 915v134h178v358h164v-358h271v-134h-271v-606q0 -111 24.5 -159t108.5 -48q68 0 144 27l39 -129q-96 -31 -207 -31q-152 0 -212.5 74t-60.5 264v608h-178z"/>
<glyph unicode="u" horiz-adv-x="1142" d="M152 367v682h163v-627q0 -162 37 -228.5t148 -66.5q63 0 154 37t165 90v795h164v-1049h-164v106q-86 -63 -185 -100t-173 -37q-162 0 -235.5 100.5t-73.5 297.5z"/>
<glyph unicode="v" horiz-adv-x="987" d="M33 1049h178l287 -824l284 824h172l-383 -1049h-157z"/>
<glyph unicode="w" horiz-adv-x="1433" d="M45 1049h168l188 -805l248 805h144l247 -793l187 793h162l-265 -1049h-149l-258 825l-256 -825h-148z"/>
<glyph unicode="x" horiz-adv-x="983" d="M37 0l358 518l-354 531h199l258 -404l264 404h184l-358 -519l358 -530h-203l-258 406l-266 -406h-182z"/>
<glyph unicode="y" horiz-adv-x="1017" d="M-12 -365l43 136q53 -27 149 -27q137 0 213 195l35 90l-393 1020h178l299 -803l309 803h172l-454 -1129q-70 -172 -155 -243.5t-214 -71.5q-98 -1 -182 30z"/>
<glyph unicode="z" horiz-adv-x="933" d="M63 0v121l586 794h-573v134h778v-115l-588 -799h604v-135h-807z"/>
<glyph unicode="{" horiz-adv-x="843" d="M72 489v148h18q150 0 210 92t60 264v146q0 381 363 381h49v-134h-22q-129 0 -179.5 -63t-50.5 -201v-172q0 -156 -63.5 -249t-196.5 -140q260 -88 260 -387v-172q0 -137 50.5 -200.5t179.5 -63.5h22v-133h-49q-362 0 -363 381v147q0 170 -60 263t-210 93h-18z"/>
<glyph unicode="|" horiz-adv-x="780" d="M311 -395v1915h158v-1915h-158z"/>
<glyph unicode="}" horiz-adv-x="843" d="M72 -262h22q129 0 179.5 63.5t50.5 200.5v172q0 299 260 387q-133 47 -196.5 140.5t-63.5 248.5v172q0 137 -50.5 200.5t-179.5 63.5h-22v134h49q362 0 362 -381v-146q0 -172 60.5 -264t210.5 -92h18v-148h-18q-150 0 -210.5 -93t-60.5 -263v-147q0 -381 -362 -381h-49 v133z"/>
<glyph unicode="~" horiz-adv-x="1228" d="M121 608v160q141 127 274 127q86 0 264 -94q123 -63 185 -64q111 0 266 144v-160q-152 -127 -264 -127q-59 0 -113.5 19.5t-177.5 82.5q-111 55 -164 56q-110 -1 -270 -144z"/>
<glyph unicode="¡" horiz-adv-x="512" d="M133 956.5q0 51.5 36 87t87 35.5t87 -35.5t36 -87t-36 -87t-87 -35.5t-87 35.5t-36 87zM160 -395l24 1050h144l24 -1050h-192z"/>
<glyph unicode="¢" d="M147 522q0 238 95.5 382.5t285.5 168.5v309h144v-307q201 -20 303 -192l-137 -86q-59 104 -166 127v-803q100 12 188 78l94 -123q-119 -90 -282 -105v-305h-144v307q-381 49 -381 549zM317 522q0 -176 46.5 -274t164.5 -123v799q-211 -48 -211 -402z"/>
<glyph unicode="£" d="M86 0v147q96 41 141 163t45 247q0 51 -4 76h-176v145h148q-6 31 -25.5 105.5t-28 127t-8.5 111.5q0 190 126 294t321 104q285 0 438 -236l-127 -98q-129 184 -313 184q-127 0 -197 -72.5t-70 -199.5q0 -66 32 -181.5t36 -138.5h367v-145h-347q4 -45 5 -68 q0 -117 -41 -231.5t-123 -179.5h774v-154h-973z"/>
<glyph unicode="¤" d="M66 324l194 198q-72 98 -72 223q0 133 70 226l-192 194l92 92l192 -190q102 76 228 76q131 0 229 -74l192 188l91 -92l-187 -190q74 -98 74 -230q0 -115 -76 -227l189 -194l-91 -91l-194 191q-98 -70 -227 -70q-125 0 -224 72l-196 -193zM334 745q0 -104 70.5 -177.5 t173.5 -73.5q109 0 181 72.5t72 179t-70.5 182.5t-182.5 76q-106 0 -175 -76.5t-69 -182.5z"/>
<glyph unicode="¥" d="M33 1489h203l344 -709l348 709h194l-352 -682h266v-119h-327l-43 -84v-88h370v-119h-370v-397h-177v397h-366v119h366v80l-47 92h-319v119h258z"/>
<glyph unicode="¦" horiz-adv-x="780" d="M311 242h158v-637h-158v637zM311 883v637h158v-637h-158z"/>
<glyph unicode="§" horiz-adv-x="1021" d="M82 586q0 186 246 344q-180 127 -181 282q0 150 111 229t279 79q246 0 378 -168l-124 -99q-100 119 -250 119q-94 0 -160 -37t-66 -123q0 -70 103 -149q10 -8 213 -135q145 -90 227 -179.5t82 -211.5q0 -109 -63.5 -187t-182.5 -155q180 -131 180 -285 q0 -147 -108.5 -226t-276.5 -79q-254 0 -383 168l125 98q100 -119 254 -119q94 0 158 38t64 124q0 33 -22.5 67.5t-64.5 67.5t-76 55.5t-84 51t-63 37.5q-74 47 -115.5 77.5t-95 81.5t-79 109.5t-25.5 124.5zM244 592q0 -88 125 -186q61 -47 200 -130q6 4 29 20.5l32 23 t29.5 22.5t30.5 27l28 27q17 17 25.5 30.5t17.5 31t13 35t4 35.5q0 92 -123 189q-29 23 -61 44l-77 48l-64 39l-95 -68.5t-74 -80t-40 -107.5z"/>
<glyph unicode="¨" horiz-adv-x="614" d="M10 1382q0 45 31 76t76 31t75.5 -31t30.5 -76t-30.5 -75.5t-75.5 -30.5t-76 30.5t-31 75.5zM389 1382q0 45 31 76t76 31t75.5 -31t30.5 -76t-30.5 -75.5t-75.5 -30.5t-76 30.5t-31 75.5z"/>
<glyph unicode="©" horiz-adv-x="1935" d="M102 653.5q0 358.5 253 612.5t612 254q360 0 613 -254t253 -612.5t-253 -611.5t-611.5 -253t-612.5 253t-254 611.5zM233 653q0 -303 215.5 -518t518.5 -215t519 215t216 518t-215 519.5t-518 216.5q-305 0 -520.5 -215.5t-215.5 -520.5zM596 672q0 240 97.5 358.5 t301.5 118.5q223 0 320 -182l-111 -62q-72 127 -211 127q-141 0 -196.5 -87t-55.5 -273q0 -360 256 -361q104 0 211 78l78 -94q-119 -98 -291 -98q-205 0 -302 116.5t-97 358.5z"/>
<glyph unicode="ª" horiz-adv-x="774" d="M68 1012q0 113 73.5 165t208.5 64l174 16v27q0 72 -42 98.5t-122 26.5q-113 0 -192 -63l-78 88q100 86 272 86q152 0 222.5 -55.5t70.5 -184.5v-463h-131v57q-117 -76 -235 -75q-102 0 -161.5 59.5t-59.5 153.5zM203 1014q0 -109 123 -109q72 0 198 80v172l-106 -10 q-111 -10 -163 -37.5t-52 -95.5z"/>
<glyph unicode="«" horiz-adv-x="1161" d="M41 524l393 471h193l-400 -471l400 -471h-193zM528 524l394 471h192l-399 -471l399 -471h-192z"/>
<glyph unicode="¬" horiz-adv-x="1228" d="M86 879v143h1057v-553h-144v410h-913z"/>
<glyph unicode="­" horiz-adv-x="786" d="M82 442v164h623v-164h-623z"/>
<glyph unicode="®" horiz-adv-x="1935" d="M102 653.5q0 358.5 253 612.5t611.5 254t612.5 -253t254 -611.5t-253 -612.5t-611.5 -254t-612.5 253t-254 611.5zM233 655q0 -303 215.5 -519t518.5 -216t519 216t216 519v-2q0 303 -215 519.5t-518 216.5t-519.5 -215.5t-216.5 -518.5zM649 215v915h297q174 0 264 -59 t90 -201q0 -205 -167 -258l210 -397h-157l-197 377h-201v-377h-139zM788 709h166q113 0 157 36.5t44 122.5q0 80 -47 114t-160 34h-160v-307z"/>
<glyph unicode="¯" horiz-adv-x="614" d="M51 1346v110h512v-110h-512z"/>
<glyph unicode="°" horiz-adv-x="804" d="M125 1241q0 115 81 197t195.5 82t196.5 -81t82 -196t-81 -196.5t-195.5 -81.5t-196.5 80.5t-82 195.5zM244 1243q0 -66 46 -113t113 -47q66 0 112 46.5t46 112t-46 112.5t-112 47q-68 0 -113.5 -47.5t-45.5 -110.5z"/>
<glyph unicode="±" horiz-adv-x="1228" d="M86 0v143h1057v-143h-1057zM86 674v143h457v457h143v-457h457v-143h-457v-457h-143v457h-457z"/>
<glyph unicode="²" horiz-adv-x="827" d="M86 680v111l238 184q145 113 194 172t49 127q0 49 -41 84t-110 35q-119 0 -228 -117l-102 90q129 154 332 154q133 0 220 -63.5t87 -180.5q0 -164 -211 -320l-192 -143h421v-133h-657z"/>
<glyph unicode="³" horiz-adv-x="827" d="M94 770l94 94q109 -92 211 -92q88 0 133.5 39t45.5 109q0 123 -193 122h-104v121h94q88 0 138 36t50 89q0 47 -40 79t-105 32q-104 0 -213 -94l-92 96q115 119 305 119q141 0 220 -62.5t79 -157.5q0 -141 -127 -188q145 -47 145 -199q0 -127 -91 -195.5t-245 -68.5 q-170 0 -305 121z"/>
<glyph unicode="´" horiz-adv-x="614" d="M160 1235l211 334h221l-301 -334h-131z"/>
<glyph unicode="µ" horiz-adv-x="1150" d="M160 -395v1444h164v-627q0 -172 35.5 -233.5t148.5 -61.5q63 0 154.5 37t164.5 90v795h164v-1049h-164v106q-84 -61 -180 -99t-158 -38q-111 0 -165 66v-430h-164z"/>
<glyph unicode="¶" horiz-adv-x="1218" d="M41 1069q0 193 130 306.5t349 113.5h658v-137h-189v-1747h-164v1747h-190v-1747h-164v1040q-188 0 -309 108.5t-121 315.5z"/>
<glyph unicode="·" horiz-adv-x="512" d="M133 745.5q0 51.5 36 87t87 35.5t87 -35.5t36 -87t-36 -87t-87 -35.5t-87 35.5t-36 87z"/>
<glyph unicode="¸" horiz-adv-x="614" d="M61 -350l41 102q123 -35 199 -35q125 0 125 80q0 94 -182 99l63 122h107l-25 -49q168 -33 168 -176q0 -90 -69.5 -139t-190.5 -49q-150 0 -236 45z"/>
<glyph unicode="¹" horiz-adv-x="827" d="M129 1219v116q168 53 270 185h88v-846h-143v614q-94 -49 -215 -69z"/>
<glyph unicode="º" horiz-adv-x="784" d="M72 1157q0 186 93 274.5t228 88.5t227.5 -88.5t92.5 -274.5q0 -184 -92.5 -271t-227.5 -87q-137 0 -229 87t-92 271zM209 1157q0 -250 184.5 -250t184.5 250q0 252 -184.5 252t-184.5 -252z"/>
<glyph unicode="»" horiz-adv-x="1161" d="M47 53l399 471l-399 471h193l393 -471l-393 -471h-193zM535 53l399 471l-399 471h192l393 -471l-393 -471h-192z"/>
<glyph unicode="¼" horiz-adv-x="1980" d="M129 1219v116q168 53 270 185h88v-846h-143v614q-94 -49 -215 -69zM483 -31l783 1520h143l-782 -1520h-144zM1075 166v121l457 553h117v-553h94v-121h-94v-197h-144v197h-430zM1231 287h274v329z"/>
<glyph unicode="½" horiz-adv-x="1980" d="M129 1219v116q168 53 270 185h88v-846h-143v614q-94 -49 -215 -69zM422 -31l782 1520h144l-783 -1520h-143zM1143 0v111l237 184q145 113 194.5 172t49.5 127q0 49 -41 84t-110 35q-119 0 -228 -117l-102 90q129 154 332 154q133 0 220 -63.5t87 -180.5q0 -164 -211 -320 l-193 -143h422v-133h-657z"/>
<glyph unicode="¾" horiz-adv-x="1980" d="M94 770l94 94q109 -92 211 -92q88 0 133.5 39t45.5 109q0 123 -193 122h-104v121h94q88 0 138 36t50 89q0 47 -40 79t-105 32q-104 0 -213 -94l-92 96q115 119 305 119q141 0 220 -62.5t79 -157.5q0 -141 -127 -188q145 -47 145 -199q0 -127 -91 -195.5t-245 -68.5 q-170 0 -305 121zM504 -31l782 1520h144l-783 -1520h-143zM1075 166v121l457 553h117v-553h94v-121h-94v-197h-144v197h-430zM1231 287h274v329z"/>
<glyph unicode="¿" horiz-adv-x="997" d="M76 -16.5q0 186.5 119 305.5q94 94 303 211v186h143v-266q-195 -111 -254 -164q-133 -119 -133 -258q0 -113 63.5 -178.5t188.5 -65.5q180 0 303 168l131 -100q-162 -217 -434 -217q-197 0 -313.5 96t-116.5 282.5zM444 956.5q0 51.5 36 87t87 35.5t87 -35.5t36 -87 t-36 -87t-87 -35.5t-87 35.5t-36 87z"/>
<glyph unicode="À" horiz-adv-x="1329" d="M33 0l522 1489h219l522 -1489h-186l-143 416h-611l-143 -416h-180zM350 1935h221l211 -333h-131zM408 573h503l-252 734z"/>
<glyph unicode="Á" horiz-adv-x="1329" d="M33 0l522 1489h219l522 -1489h-186l-143 416h-611l-143 -416h-180zM408 573h503l-252 734zM528 1602l211 333h222l-302 -333h-131z"/>
<glyph unicode="Â" horiz-adv-x="1329" d="M33 0l522 1489h219l522 -1489h-186l-143 416h-611l-143 -416h-180zM358 1602l213 333h187l211 -333h-138l-167 215l-168 -215h-138zM408 573h503l-252 734z"/>
<glyph unicode="Ã" horiz-adv-x="1329" d="M33 0l522 1489h219l522 -1489h-186l-143 416h-611l-143 -416h-180zM309 1602q6 111 54.5 192.5t150.5 81.5q80 0 152 -68q74 -78 122 -77q43 0 64.5 46t24.5 99h106q-18 -274 -207 -274q-76 0 -153 71q-74 74 -119 74t-65.5 -45t-22.5 -100h-107zM408 573h503l-252 734z "/>
<glyph unicode="Ä" horiz-adv-x="1329" d="M33 0l522 1489h219l522 -1489h-186l-143 416h-611l-143 -416h-180zM369 1708q0 45 30.5 76t75.5 31t76 -31t31 -76t-31 -75.5t-76 -30.5t-75.5 30.5t-30.5 75.5zM408 573h503l-252 734zM748 1708q0 45 30.5 76t75.5 31t76 -31t31 -76t-31 -75.5t-76 -30.5t-75.5 30.5 t-30.5 75.5z"/>
<glyph unicode="Å" horiz-adv-x="1329" d="M33 0l522 1489h219l522 -1489h-186l-143 416h-611l-143 -416h-180zM408 573h503l-252 734zM457 1778q0 86 60.5 147.5t146.5 61.5t147 -61.5t61 -147.5t-61 -146.5t-147 -60.5t-146.5 60.5t-60.5 146.5zM545 1778q0 -49 34.5 -84t84 -35t85 35t35.5 84t-35.5 84.5 t-85 35.5t-84 -35.5t-34.5 -84.5z"/>
<glyph unicode="Æ" horiz-adv-x="1865" d="M16 0l625 1489h1110v-158h-678v-471h613v-158h-613v-544h678v-158h-854v416h-528l-172 -416h-181zM434 573h463v758h-147z"/>
<glyph unicode="Ç" horiz-adv-x="1249" d="M123 743q0 395 145.5 586t450.5 191q330 0 465 -277l-137 -82q-104 205 -330 205q-227 0 -317.5 -154.5t-90.5 -468.5q0 -317 93.5 -468.5t316.5 -151.5q168 0 323 123l99 -127q-158 -143 -406 -150q86 -16 126 -64t40 -112q0 -90 -69.5 -139t-190.5 -49q-150 0 -235 45 l40 102q123 -35 199 -35q125 0 125 80q0 94 -182 99l41 77q-258 27 -382 216t-124 554z"/>
<glyph unicode="È" horiz-adv-x="1185" d="M176 0v1489h895v-158h-719v-471h654v-158h-654v-544h719v-158h-895zM309 1935h221l211 -333h-131z"/>
<glyph unicode="É" horiz-adv-x="1185" d="M176 0v1489h895v-158h-719v-471h654v-158h-654v-544h719v-158h-895zM467 1602l211 333h221l-301 -333h-131z"/>
<glyph unicode="Ê" horiz-adv-x="1185" d="M176 0v1489h895v-158h-719v-471h654v-158h-654v-544h719v-158h-895zM309 1602l213 333h187l211 -333h-138l-168 215l-168 -215h-137z"/>
<glyph unicode="Ë" horiz-adv-x="1185" d="M176 0v1489h895v-158h-719v-471h654v-158h-654v-544h719v-158h-895zM334 1708q0 45 30.5 76t75.5 31t76 -31t31 -76t-31 -75.5t-76 -30.5t-75.5 30.5t-30.5 75.5zM713 1708q0 45 30.5 76t75.5 31t76 -31t31 -76t-31 -75.5t-76 -30.5t-75.5 30.5t-30.5 75.5z"/>
<glyph unicode="Ì" horiz-adv-x="528" d="M-20 1935h221l211 -333h-131zM176 0v1489h176v-1489h-176z"/>
<glyph unicode="Í" horiz-adv-x="528" d="M119 1602l211 333h221l-301 -333h-131zM176 0v1489h176v-1489h-176z"/>
<glyph unicode="Î" horiz-adv-x="528" d="M-41 1602l213 333h186l211 -333h-137l-168 215l-168 -215h-137zM176 0v1489h176v-1489h-176z"/>
<glyph unicode="Ï" horiz-adv-x="528" d="M-20 1708q0 45 30.5 76t75.5 31t76 -31t31 -76t-31 -75.5t-76 -30.5t-75.5 30.5t-30.5 75.5zM176 0v1489h176v-1489h-176zM336 1708q0 45 30.5 76t75.5 31t76 -31t31 -76t-31 -75.5t-76 -30.5t-75.5 30.5t-30.5 75.5z"/>
<glyph unicode="Ð" horiz-adv-x="1390" d="M41 680v141h135v668h336q397 0 576.5 -168t179.5 -578q0 -217 -46 -362t-144.5 -229t-231.5 -118t-330 -34h-340v680h-135zM352 158h168q307 0 434 132t127 455q0 326 -131 456t-430 130h-168v-510h344v-141h-344v-522z"/>
<glyph unicode="Ñ" horiz-adv-x="1413" d="M176 0v1489h264l629 -1194v1194h168v-1489h-205l-688 1309v-1309h-168zM381 1602q6 111 54 192.5t151 81.5q80 0 151 -68q4 -2 14.5 -13t16.5 -16l16 -15q10 -9 18.5 -13t18.5 -10t19.5 -8t19.5 -2q43 0 64.5 46t23.5 99h107q-18 -274 -207 -274q-74 0 -154 71 q-78 74 -119 74q-45 0 -65.5 -45t-22.5 -100h-106z"/>
<glyph unicode="Ò" horiz-adv-x="1413" d="M123 743q0 776 583.5 776.5t583.5 -776.5q0 -774 -583.5 -774t-583.5 774zM309 743q0 -313 89 -466.5t308.5 -153.5t308.5 153.5t89 466.5q0 315 -89 469t-308.5 154t-308.5 -154t-89 -469zM412 1935h221l211 -333h-131z"/>
<glyph unicode="Ó" horiz-adv-x="1413" d="M123 743q0 776 583.5 776.5t583.5 -776.5q0 -774 -583.5 -774t-583.5 774zM309 743q0 -313 89 -466.5t308.5 -153.5t308.5 153.5t89 466.5q0 315 -89 469t-308.5 154t-308.5 -154t-89 -469zM557 1602l211 333h221l-301 -333h-131z"/>
<glyph unicode="Ô" horiz-adv-x="1413" d="M123 743q0 776 583.5 776.5t583.5 -776.5q0 -774 -583.5 -774t-583.5 774zM309 743q0 -313 89 -466.5t308.5 -153.5t308.5 153.5t89 466.5q0 315 -89 469t-308.5 154t-308.5 -154t-89 -469zM401 1602l213 333h187l211 -333h-138l-167 215l-168 -215h-138z"/>
<glyph unicode="Õ" horiz-adv-x="1413" d="M123 743q0 776 583.5 776.5t583.5 -776.5q0 -774 -583.5 -774t-583.5 774zM309 743q0 -313 89 -466.5t308.5 -153.5t308.5 153.5t89 466.5q0 315 -89 469t-308.5 154t-308.5 -154t-89 -469zM371 1602q6 111 54 192.5t150 81.5q80 0 152 -68q4 -2 14.5 -13t16.5 -16 l16 -15q10 -9 18.5 -13t18.5 -10t19.5 -8t19.5 -2q43 0 64.5 46t23.5 99h106q-18 -274 -206 -274q-76 0 -154 71q-78 74 -119 74q-45 0 -65.5 -45t-22.5 -100h-106z"/>
<glyph unicode="Ö" horiz-adv-x="1413" d="M123 743q0 776 583.5 776.5t583.5 -776.5q0 -774 -583.5 -774t-583.5 774zM309 743q0 -313 89 -466.5t308.5 -153.5t308.5 153.5t89 466.5q0 315 -89 469t-308.5 154t-308.5 -154t-89 -469zM412 1708q0 45 30.5 76t75.5 31t76 -31t31 -76t-31 -75.5t-76 -30.5t-75.5 30.5 t-30.5 75.5zM791 1708q0 45 30.5 76t75.5 31t76 -31t31 -76t-31 -75.5t-76 -30.5t-75.5 30.5t-30.5 75.5z"/>
<glyph unicode="×" horiz-adv-x="1228" d="M176 408l338 337l-338 338l100 101l338 -338l338 338l101 -101l-338 -338l338 -337l-101 -101l-338 338l-338 -338z"/>
<glyph unicode="Ø" horiz-adv-x="1413" d="M123 743q0 776 584 777q195 0 321 -84l74 129h153l-125 -219q160 -193 160 -603q0 -774 -583 -774q-190 0 -320 82l-96 -166h-154l148 256q-162 190 -162 602zM309 743q0 -289 72 -434l565 983q-90 74 -239 74q-219 0 -308.5 -154t-89.5 -469zM469 195q90 -72 238 -72 q219 0 308 153.5t89 466.5q0 287 -70 435z"/>
<glyph unicode="Ù" horiz-adv-x="1347" d="M156 598v891h176v-881q0 -258 75.5 -371.5t266 -113.5t266.5 113.5t76 371.5v881h176v-891q0 -182 -34 -306t-103.5 -193.5t-160.5 -99.5t-220 -30t-220.5 30t-161 99.5t-103 193.5t-33.5 306zM350 1935h221l211 -333h-131z"/>
<glyph unicode="Ú" horiz-adv-x="1347" d="M156 598v891h176v-881q0 -258 75.5 -371.5t266 -113.5t266.5 113.5t76 371.5v881h176v-891q0 -182 -34 -306t-103.5 -193.5t-160.5 -99.5t-220 -30t-220.5 30t-161 99.5t-103 193.5t-33.5 306zM549 1602l211 333h221l-301 -333h-131z"/>
<glyph unicode="Û" horiz-adv-x="1347" d="M156 598v891h176v-881q0 -258 75.5 -371.5t266 -113.5t266.5 113.5t76 371.5v881h176v-891q0 -182 -34 -306t-103.5 -193.5t-160.5 -99.5t-220 -30t-220.5 30t-161 99.5t-103 193.5t-33.5 306zM369 1602l213 333h186l211 -333h-137l-168 215l-168 -215h-137z"/>
<glyph unicode="Ü" horiz-adv-x="1347" d="M156 598v891h176v-881q0 -258 75.5 -371.5t266 -113.5t266.5 113.5t76 371.5v881h176v-891q0 -182 -34 -306t-103.5 -193.5t-160.5 -99.5t-220 -30t-220.5 30t-161 99.5t-103 193.5t-33.5 306zM379 1708q0 45 30.5 76t75.5 31t76 -31t31 -76t-31 -75.5t-76 -30.5 t-75.5 30.5t-30.5 75.5zM758 1708q0 45 30.5 76t75.5 31t76 -31t31 -76t-31 -75.5t-76 -30.5t-75.5 30.5t-30.5 75.5z"/>
<glyph unicode="Ý" horiz-adv-x="1224" d="M33 1489h203l378 -709l383 709h195l-492 -885v-604h-176v596zM487 1602l211 333h222l-302 -333h-131z"/>
<glyph unicode="Þ" horiz-adv-x="1212" d="M176 0v1489h176v-266h232q274 0 409 -101.5t135 -341.5q0 -250 -130 -361.5t-423 -111.5h-223v-307h-176zM352 465h207q207 0 295 64.5t88 246.5q0 160 -88 224.5t-266 64.5h-236v-600z"/>
<glyph unicode="ß" horiz-adv-x="1128" d="M160 0v1034q0 223 95 354.5t310 131.5q172 0 267.5 -86t95.5 -238q0 -258 -252 -326q354 -29 354 -411q0 -205 -107.5 -347.5t-326.5 -142.5q-68 0 -160 15v153q61 -20 154 -20q129 0 199.5 94t70.5 256q0 178 -97 244.5t-302 66.5v142q301 0 301 258q0 92 -52.5 146 t-148.5 54q-238 0 -237 -336v-1042h-164z"/>
<glyph unicode="à" horiz-adv-x="1050" d="M82 293q0 172 103.5 252t289.5 98l260 25v55q0 119 -63.5 164t-182.5 45q-166 0 -274 -96l-94 118q133 125 373 125q211 0 308 -85t97 -279v-715h-164v102q-180 -133 -348 -133q-141 0 -223 89.5t-82 234.5zM193 1569h221l211 -334h-131zM252 297q0 -182 186 -182 q115 0 297 131v291l-164 -17q-160 -16 -239.5 -62t-79.5 -161z"/>
<glyph unicode="á" horiz-adv-x="1050" d="M82 293q0 172 103.5 252t289.5 98l260 25v55q0 119 -63.5 164t-182.5 45q-166 0 -274 -96l-94 118q133 125 373 125q211 0 308 -85t97 -279v-715h-164v102q-180 -133 -348 -133q-141 0 -223 89.5t-82 234.5zM252 297q0 -182 186 -182q115 0 297 131v291l-164 -17 q-160 -16 -239.5 -62t-79.5 -161zM365 1235l210 334h222l-301 -334h-131z"/>
<glyph unicode="â" horiz-adv-x="1050" d="M82 293q0 172 103.5 252t289.5 98l260 25v55q0 119 -63.5 164t-182.5 45q-166 0 -274 -96l-94 118q133 125 373 125q211 0 308 -85t97 -279v-715h-164v102q-180 -133 -348 -133q-141 0 -223 89.5t-82 234.5zM184 1235l213 334h187l211 -334h-138l-168 215l-167 -215h-138 zM252 297q0 -182 186 -182q115 0 297 131v291l-164 -17q-160 -16 -239.5 -62t-79.5 -161z"/>
<glyph unicode="ã" horiz-adv-x="1050" d="M82 293q0 172 103.5 252t289.5 98l260 25v55q0 119 -63.5 164t-182.5 45q-166 0 -274 -96l-94 118q133 125 373 125q211 0 308 -85t97 -279v-715h-164v102q-180 -133 -348 -133q-141 0 -223 89.5t-82 234.5zM150 1264q6 111 54 192.5t150 81.5q80 0 152 -68 q74 -78 123 -77q43 0 64.5 46t23.5 99h106q-18 -274 -207 -274q-76 0 -153 71q-74 74 -119 74t-65.5 -45t-22.5 -100h-106zM252 297q0 -182 186 -182q115 0 297 131v291l-164 -17q-160 -16 -239.5 -62t-79.5 -161z"/>
<glyph unicode="ä" horiz-adv-x="1050" d="M82 293q0 172 102.5 252t290.5 98l260 25v55q0 119 -63.5 164t-182.5 45q-166 0 -274 -96l-94 118q133 125 373 125q211 0 308 -85t97 -279v-715h-164v102q-180 -133 -348 -133q-141 0 -223 89.5t-82 234.5zM205 1382q0 45 30.5 76t75.5 31t76 -31t31 -76t-31 -75.5 t-76 -30.5t-75.5 30.5t-30.5 75.5zM252 297q0 -182 186 -182q115 0 297 131v291l-164 -17q-160 -16 -239.5 -62t-79.5 -161zM584 1382q0 45 30.5 76t75.5 31t76 -31t31 -76t-31 -75.5t-76 -30.5t-75.5 30.5t-30.5 75.5z"/>
<glyph unicode="å" horiz-adv-x="1050" d="M82 293q0 172 103.5 252t289.5 98l260 25v55q0 119 -63.5 164t-182.5 45q-166 0 -274 -96l-94 118q133 125 373 125q211 0 308 -85t97 -279v-715h-164v102q-180 -133 -348 -133q-141 0 -223 89.5t-82 234.5zM252 297q0 -182 186 -182q115 0 297 131v291l-164 -17 q-160 -16 -239.5 -62t-79.5 -161zM313 1399q0 86 60.5 147.5t146.5 61.5t147.5 -61.5t61.5 -147.5t-61.5 -146.5t-147.5 -60.5t-146.5 60.5t-60.5 146.5zM401 1399q0 -49 35 -84t84 -35t85 35t36 84t-36 85t-85 36t-84 -36t-35 -85z"/>
<glyph unicode="æ" horiz-adv-x="1705" d="M82 293q0 172 103.5 252t289.5 98l260 25v55q0 119 -63.5 164t-182.5 45q-166 0 -274 -96l-94 118q133 125 373 125q291 0 356 -174q109 174 344 174q199 0 308.5 -128t109.5 -349v-119h-713q0 -367 311 -366q141 0 256 82l93 -123q-137 -106 -342 -107q-283 0 -400 183 q-219 -182 -430 -183q-141 0 -223 89.5t-82 234.5zM252 297q0 -182 186 -182q57 0 152.5 46t173.5 105q-29 70 -29 178v93l-164 -17q-160 -16 -239.5 -62t-79.5 -161zM903 612h547q0 158 -68.5 242t-195.5 84q-258 0 -283 -326z"/>
<glyph unicode="ç" horiz-adv-x="974" d="M98 522q0 262 116 409.5t347 147.5q248 0 365 -196l-138 -86q-80 135 -231 135q-154 0 -221.5 -104.5t-67.5 -305.5q0 -205 64.5 -305t232.5 -100q131 0 246 82l94 -123q-125 -98 -311 -107q168 -33 168 -176q0 -90 -69.5 -139t-190.5 -49q-150 0 -236 45l41 102 q123 -35 199 -35q125 0 125 80q0 94 -182 99l40 77q-391 43 -391 549z"/>
<glyph unicode="è" horiz-adv-x="1075" d="M98 516q0 262 115 412.5t350 150.5q199 0 308.5 -128t109.5 -349v-119h-713q0 -367 312 -366q141 0 256 82l92 -123q-137 -106 -342 -107q-488 0 -488 547zM244 1569h221l211 -334h-131zM272 612h547q0 158 -68.5 242t-195.5 84q-258 0 -283 -326z"/>
<glyph unicode="é" horiz-adv-x="1075" d="M98 516q0 262 115 412.5t350 150.5q199 0 308.5 -128t109.5 -349v-119h-713q0 -367 312 -366q141 0 256 82l92 -123q-137 -106 -342 -107q-488 0 -488 547zM272 612h547q0 158 -68.5 242t-195.5 84q-258 0 -283 -326zM418 1235l211 334h221l-301 -334h-131z"/>
<glyph unicode="ê" horiz-adv-x="1075" d="M98 516q0 262 115 412.5t350 150.5q199 0 308.5 -128t109.5 -349v-119h-713q0 -367 312 -366q141 0 256 82l92 -123q-137 -106 -342 -107q-488 0 -488 547zM248 1235l213 334h186l211 -334h-137l-168 215l-168 -215h-137zM272 612h547q0 158 -68.5 242t-195.5 84 q-258 0 -283 -326z"/>
<glyph unicode="ë" horiz-adv-x="1075" d="M98 516q0 262 115 412.5t350 150.5q199 0 308.5 -128t109.5 -349v-119h-713q0 -367 312 -366q141 0 256 82l92 -123q-137 -106 -342 -107q-488 0 -488 547zM246 1382q0 45 30.5 76t75.5 31t76 -31t31 -76t-31 -75.5t-76 -30.5t-75.5 30.5t-30.5 75.5zM272 612h547 q0 158 -68.5 242t-195.5 84q-258 0 -283 -326zM625 1382q0 45 30.5 76t75.5 31t76 -31t31 -76t-31 -75.5t-76 -30.5t-75.5 30.5t-30.5 75.5z"/>
<glyph unicode="ì" horiz-adv-x="483" d="M-74 1569h221l211 -334h-131zM160 0v1049h164v-1049h-164z"/>
<glyph unicode="í" horiz-adv-x="483" d="M119 1235l211 334h221l-301 -334h-131zM160 0v1049h164v-1049h-164z"/>
<glyph unicode="î" horiz-adv-x="483" d="M-63 1235l213 334h186l211 -334h-137l-168 215l-168 -215h-137zM160 0v1049h164v-1049h-164z"/>
<glyph unicode="ï" horiz-adv-x="483" d="M-37 1382q0 45 31 76t76 31t75.5 -31t30.5 -76t-30.5 -75.5t-75.5 -30.5t-76 30.5t-31 75.5zM160 0v1049h164v-1049h-164zM307 1382q0 45 31 76t76 31t75.5 -31t30.5 -76t-30.5 -75.5t-75.5 -30.5t-76 30.5t-31 75.5z"/>
<glyph unicode="ð" horiz-adv-x="1087" d="M98 506q0 270 127 406.5t285 136.5q135 0 246 -66q-72 174 -213 309l-215 -116l-52 94l189 102q-106 106 -178 148h174q68 -33 123 -84l153 84l51 -95l-122 -67q324 -317 323 -842q0 -111 -25.5 -206t-76.5 -173t-139.5 -123t-202.5 -45q-188 0 -317.5 133.5 t-129.5 403.5zM268 506q0 -389 277 -389q147 0 210.5 109.5t63.5 279.5q0 395 -274 395q-277 0 -277 -395z"/>
<glyph unicode="ñ" horiz-adv-x="1142" d="M160 0v1049h164v-107q86 63 185 100t173 37q162 0 235.5 -100t73.5 -297v-682h-164v627q0 162 -36.5 228.5t-147.5 66.5q-63 0 -154.5 -37t-164.5 -90v-795h-164zM233 1264q6 111 54.5 192.5t150.5 81.5q80 0 152 -68q74 -78 123 -77q43 0 64.5 46t23.5 99h106 q-18 -274 -207 -274q-74 0 -153 71q-74 74 -119 74t-65.5 -45t-22.5 -100h-107z"/>
<glyph unicode="ò" horiz-adv-x="1087" d="M98 522q0 150 37 261.5t102.5 174t142.5 92t165 29.5q188 0 316 -134t128 -423q0 -285 -128 -419t-316 -134q-88 0 -165 30t-141.5 92.5t-102.5 173t-38 257.5zM252 1569h221l211 -334h-131zM268 522q0 -406 277 -405q274 0 274 405q0 410 -274 410q-277 0 -277 -410z "/>
<glyph unicode="ó" horiz-adv-x="1087" d="M98 522q0 150 37 261.5t102.5 174t142.5 92t165 29.5q188 0 316 -134t128 -423q0 -285 -128 -419t-316 -134q-88 0 -165 30t-141.5 92.5t-102.5 173t-38 257.5zM268 522q0 -406 277 -405q274 0 274 405q0 410 -274 410q-277 0 -277 -410zM391 1235l211 334h221l-301 -334 h-131z"/>
<glyph unicode="ô" horiz-adv-x="1087" d="M98 522q0 150 37 261.5t102.5 174t142.5 92t165 29.5q188 0 316 -134t128 -423q0 -285 -128 -419t-316 -134q-88 0 -165 30t-141.5 92.5t-102.5 173t-38 257.5zM238 1235l213 334h186l211 -334h-137l-168 215l-168 -215h-137zM268 522q0 -406 277 -405q274 0 274 405 q0 410 -274 410q-277 0 -277 -410z"/>
<glyph unicode="õ" horiz-adv-x="1087" d="M98 522q0 150 37 261.5t102.5 174t142.5 92t165 29.5q188 0 316 -134t128 -423q0 -285 -128 -419t-316 -134q-88 0 -165 30t-141.5 92.5t-102.5 173t-38 257.5zM207 1264q6 111 54 192.5t151 81.5q80 0 151 -68q74 -78 123 -77q43 0 64.5 46t23.5 99h107 q-18 -274 -207 -274q-76 0 -154 71q-74 74 -119 74t-65.5 -45t-22.5 -100h-106zM268 522q0 -406 277 -405q274 0 274 405q0 410 -274 410q-277 0 -277 -410z"/>
<glyph unicode="ö" horiz-adv-x="1087" d="M98 522q0 150 37 261.5t102.5 174t142.5 92t165 29.5q188 0 316 -134t128 -423q0 -285 -128 -419t-316 -134q-88 0 -165 30t-141.5 92.5t-102.5 173t-38 257.5zM248 1382q0 45 30.5 76t75.5 31t76 -31t31 -76t-31 -75.5t-76 -30.5t-75.5 30.5t-30.5 75.5zM268 522 q0 -406 277 -405q274 0 274 405q0 410 -274 410q-277 0 -277 -410zM627 1382q0 45 30.5 76t75.5 31t76 -31t31 -76t-31 -75.5t-76 -30.5t-75.5 30.5t-30.5 75.5z"/>
<glyph unicode="÷" horiz-adv-x="1228" d="M86 674v143h1057v-143h-1057zM502 330q0 47 33.5 79.5t78.5 32.5t79 -32.5t34 -79.5t-34 -80t-79 -33t-78.5 33t-33.5 80zM502 1161q0 47 33.5 80t78.5 33t79 -33t34 -80t-34 -79.5t-79 -32.5t-78.5 32.5t-33.5 79.5z"/>
<glyph unicode="ø" horiz-adv-x="1087" d="M98 522q0 150 37 261.5t102.5 174t142.5 92t165 29.5q133 0 233 -63l66 108h143l-117 -190q119 -145 119 -412q0 -285 -128 -419t-316 -134q-129 0 -230 60l-63 -105h-143l112 187q-123 143 -123 411zM268 522q0 -166 45 -262l385 627q-63 45 -153 45q-277 0 -277 -410z M395 160q59 -43 150 -43q274 0 274 405q0 164 -43 258z"/>
<glyph unicode="ù" horiz-adv-x="1142" d="M152 367v682h163v-627q0 -162 37 -228.5t148 -66.5q63 0 154 37t165 90v795h164v-1049h-164v106q-86 -63 -185 -100t-173 -37q-162 0 -235.5 100.5t-73.5 297.5zM248 1569h221l211 -334h-131z"/>
<glyph unicode="ú" horiz-adv-x="1142" d="M152 367v682h163v-627q0 -162 37 -228.5t148 -66.5q63 0 154 37t165 90v795h164v-1049h-164v106q-86 -63 -185 -100t-173 -37q-162 0 -235.5 100.5t-73.5 297.5zM467 1235l211 334h221l-301 -334h-131z"/>
<glyph unicode="û" horiz-adv-x="1142" d="M152 367v682h163v-627q0 -162 37 -228.5t148 -66.5q63 0 154 37t165 90v795h164v-1049h-164v106q-86 -63 -185 -100t-173 -37q-162 0 -235.5 100.5t-73.5 297.5zM260 1235l213 334h186l211 -334h-137l-168 215l-168 -215h-137z"/>
<glyph unicode="ü" horiz-adv-x="1142" d="M152 367v682h163v-627q0 -162 37 -228.5t148 -66.5q63 0 154 37t165 90v795h164v-1049h-164v106q-86 -63 -185 -100t-173 -37q-162 0 -235.5 100.5t-73.5 297.5zM268 1382q0 45 31 76t76 31t75.5 -31t30.5 -76t-30.5 -75.5t-75.5 -30.5t-76 30.5t-31 75.5zM647 1382 q0 45 31 76t76 31t75.5 -31t30.5 -76t-30.5 -75.5t-75.5 -30.5t-76 30.5t-31 75.5z"/>
<glyph unicode="ý" horiz-adv-x="1017" d="M-12 -365l43 136q53 -27 149 -27q137 0 213 195l35 90l-393 1020h178l299 -803l309 803h172l-454 -1129q-70 -172 -155 -243.5t-214 -71.5q-98 -1 -182 30zM406 1235l210 334h222l-301 -334h-131z"/>
<glyph unicode="þ" horiz-adv-x="1128" d="M160 -395v1884h164v-533q61 49 148 86t159 37q201 0 300 -146.5t99 -397.5q0 -254 -123 -410t-327 -156q-141 0 -256 47v-411h-164zM324 170q111 -53 239 -53q135 0 216 105.5t81 307.5q0 401 -254 402q-127 0 -282 -119v-643z"/>
<glyph unicode="ÿ" horiz-adv-x="1017" d="M-12 -365l43 136q53 -27 149 -27q137 0 213 195l35 90l-393 1020h178l299 -803l309 803h172l-454 -1129q-70 -172 -155 -243.5t-214 -71.5q-98 -1 -182 30zM209 1382q0 45 30.5 76t75.5 31t76 -31t31 -76t-31 -75.5t-76 -30.5t-75.5 30.5t-30.5 75.5zM588 1382 q0 45 30.5 76t75.5 31t76 -31t31 -76t-31 -75.5t-76 -30.5t-75.5 30.5t-30.5 75.5z"/>
<glyph unicode="Œ" horiz-adv-x="1923" d="M123 743q0 776 584 777q137 0 249 -31h852v-158h-678v-471h613v-158h-613v-544h678v-158h-854q-104 -31 -247 -31q-584 0 -584 774zM309 743q0 -313 89 -466.5t309 -153.5q162 0 247 41v1161q-98 41 -247 41q-219 0 -308.5 -154t-89.5 -469z"/>
<glyph unicode="œ" horiz-adv-x="1789" d="M98 522q0 150 37 261.5t102.5 174t142.5 92t165 29.5q252 0 356 -219q102 219 377 219q199 0 308.5 -128t109.5 -349v-119h-713q0 -367 311 -366q141 0 256 82l92 -123q-137 -106 -342 -107q-291 0 -399 215q-109 -215 -356 -215q-88 0 -165 30t-141.5 92.5t-102.5 173 t-38 257.5zM268 522q0 -406 277 -405q274 0 274 405q0 410 -274 410q-277 0 -277 -410zM987 612h547q0 158 -68.5 242t-195.5 84q-258 0 -283 -326z"/>
<glyph unicode="Ÿ" horiz-adv-x="1224" d="M33 1489h203l378 -709l383 709h195l-492 -885v-604h-176v596zM315 1708q0 45 31 76t76 31t75.5 -31t30.5 -76t-30.5 -75.5t-75.5 -30.5t-76 30.5t-31 75.5zM694 1708q0 45 31 76t76 31t75.5 -31t30.5 -76t-30.5 -75.5t-75.5 -30.5t-76 30.5t-31 75.5z"/>
<glyph unicode="ˆ" horiz-adv-x="614" d="M2 1235l213 334h186l211 -334h-137l-168 215l-168 -215h-137z"/>
<glyph unicode="˜" horiz-adv-x="614" d="M-29 1264q6 111 54.5 192.5t150.5 81.5q80 0 152 -68q4 -2 14 -13t16 -16l17 -15q10 -9 18 -13t18.5 -10t19.5 -8t20 -2q43 0 64.5 46t23.5 99h106q-18 -274 -207 -274q-74 0 -153 71q-78 74 -119 74q-45 0 -65.5 -45t-22.5 -100h-107z"/>
<glyph unicode="–" horiz-adv-x="1024" d="M-12 455v143h1048v-143h-1048z"/>
<glyph unicode="—" horiz-adv-x="2048" d="M-12 455v143h2072v-143h-2072z"/>
<glyph unicode="‘" horiz-adv-x="512" d="M133 1122q0 180 152 398l77 -47q-102 -150 -102 -256q51 -2 85 -37t34 -84q0 -55 -35 -90t-84 -35q-57 0 -92 40.5t-35 110.5z"/>
<glyph unicode="’" horiz-adv-x="512" d="M133 1395q0 55 35 90t84 35q57 0 92 -41t35 -111q0 -180 -152 -397l-77 47q102 150 102 256q-51 2 -85 37t-34 84z"/>
<glyph unicode="‚" horiz-adv-x="512" d="M133 106q0 55 35 90t84 35q57 0 92 -40.5t35 -110.5q0 -180 -152 -397l-77 47q102 150 102 256q-51 2 -85 36.5t-34 83.5z"/>
<glyph unicode="“" horiz-adv-x="921" d="M133 1122q0 180 152 398l77 -47q-102 -150 -102 -256q51 -2 85 -37t34 -84q0 -55 -35 -90t-84 -35q-57 0 -92 40.5t-35 110.5zM543 1122q0 180 151 398l78 -47q-102 -150 -102 -256q51 -2 84.5 -37t33.5 -84q0 -55 -34.5 -90t-83.5 -35q-57 0 -92 40.5t-35 110.5z"/>
<glyph unicode="”" horiz-adv-x="921" d="M133 1395q0 55 35 90t84 35q57 0 92 -41t35 -111q0 -180 -152 -397l-77 47q102 150 102 256q-51 2 -85 37t-34 84zM543 1395q0 55 34.5 90t84.5 35q57 0 91.5 -41t34.5 -111q0 -180 -151 -397l-78 47q102 150 103 256q-51 2 -85 37t-34 84z"/>
<glyph unicode="„" horiz-adv-x="921" d="M133 106q0 55 35 90t84 35q57 0 92 -40.5t35 -110.5q0 -180 -152 -397l-77 47q102 150 102 256q-51 2 -85 36.5t-34 83.5zM543 106q0 55 34.5 90t84.5 35q57 0 91.5 -40.5t34.5 -110.5q0 -180 -151 -397l-78 47q102 150 103 256q-51 2 -85 36.5t-34 83.5z"/>
<glyph unicode="•" horiz-adv-x="733" d="M98 747.5q0 110.5 79 189.5t189.5 79t189.5 -79t79 -189.5t-79 -189.5t-189.5 -79t-189.5 79t-79 189.5z"/>
<glyph unicode="…" horiz-adv-x="2048" d="M217 108.5q0 51.5 36 87t87 35.5t87 -35.5t36 -87t-36 -87t-87 -35.5t-87 35.5t-36 87zM901 108.5q0 51.5 36 87t87 35.5t87 -35.5t36 -87t-36 -87t-87 -35.5t-87 35.5t-36 87zM1585 108.5q0 51.5 36 87t87 35.5t87 -35.5t36 -87t-36 -87t-87 -35.5t-87 35.5t-36 87z"/>
<glyph unicode="‹" horiz-adv-x="673" d="M41 524l393 471h193l-400 -471l400 -471h-193z"/>
<glyph unicode="›" horiz-adv-x="673" d="M47 53l399 471l-399 471h193l393 -471l-393 -471h-193z"/>
<glyph unicode="€" d="M0 535v118h125q-2 29 -2 90q0 55 2 82h-125v119h133q31 291 165 433.5t380 142.5q305 0 432 -277l-127 -82q-96 205 -307 205q-174 0 -260 -105.5t-109 -316.5h506l-41 -119h-473q-2 -27 -2 -82q0 -61 2 -90h414l-41 -118h-365q25 -209 113 -310.5t258 -101.5 q158 0 301 123l90 -127q-152 -150 -391 -150q-244 0 -378 139.5t-167 426.5h-133z"/>
<glyph unicode="™" horiz-adv-x="1546" d="M49 1368v121h574v-121h-220v-594h-133v594h-221zM791 774v715h157l176 -352l183 352h153v-715h-129v502l-166 -318h-84l-161 316v-500h-129z"/>
<glyph unicode="" horiz-adv-x="1050" d="M0 1050h1050v-1050h-1050v1050z"/>
<glyph unicode="ﬁ" horiz-adv-x="1124" d="M41 915v134h160v143q0 160 69.5 244t237.5 84q90 0 188 -33l-47 -137q-74 31 -139 30q-88 0 -116.5 -46t-28.5 -152v-133h243v-134h-243v-915h-164v915h-160zM776 1382q0 45 31 76t76 31t75.5 -31t30.5 -76t-30.5 -75.5t-75.5 -30.5t-76 30.5t-31 75.5zM801 0v1049h164 v-1049h-164z"/>
<glyph unicode="ﬂ" horiz-adv-x="1212" d="M41 915v134h160v143q0 160 69.5 244t237.5 84q106 0 205 -39l-47 -138q-82 37 -156 37q-88 0 -116.5 -46t-28.5 -152v-133h243v-134h-243v-915h-164v915h-160zM793 301v1188h163v-1192q0 -109 22.5 -152t88.5 -43q63 0 111 19l34 -129q-82 -23 -176 -23q-143 0 -193 76 t-50 256z"/>
<glyph unicode="ﬃ" horiz-adv-x="1765" d="M41 915v134h160v143q0 160 69.5 244t237.5 84q106 0 205 -39l-47 -138q-82 37 -156 37q-88 0 -116.5 -46t-28.5 -152v-133h243v-134h-243v-915h-164v915h-160zM682 915v134h160v143q0 160 69.5 244t237.5 84q106 0 205 -39l-47 -138q-82 37 -156 37q-88 0 -116.5 -46 t-28.5 -152v-133h243v-134h-243v-915h-164v915h-160zM1417 1382q0 45 31 76t76 31t75.5 -31t30.5 -76t-30.5 -75.5t-75.5 -30.5t-76 30.5t-31 75.5zM1442 0v1049h164v-1049h-164z"/>
<glyph unicode="ﬄ" horiz-adv-x="1853" d="M41 915v134h160v143q0 160 69.5 244t237.5 84q106 0 205 -39l-47 -138q-82 37 -156 37q-88 0 -116.5 -46t-28.5 -152v-133h243v-134h-243v-915h-164v915h-160zM682 915v134h160v143q0 160 69.5 244t237.5 84q106 0 205 -39l-47 -138q-82 37 -156 37q-88 0 -116.5 -46 t-28.5 -152v-133h243v-134h-243v-915h-164v915h-160zM1434 301v1188h163v-1192q0 -109 22.5 -152t88.5 -43q63 0 111 19l34 -129q-82 -23 -176 -23q-143 0 -193 76t-50 256z"/>
</font>
</defs>
</svg>
