<?xml version="1.0" encoding="UTF-8" standalone="no"?>
<!DOCTYPE svg PUBLIC "-//W3C//DTD SVG 1.1//EN" "http://www.w3.org/Graphics/SVG/1.1/DTD/svg11.dtd">
<svg xmlns="http://www.w3.org/2000/svg">
<metadata>
This is a custom SVG webfont generated by Font Squirrel.
Copyright   : Copyright 2007 Monotype Imaging Ltd
</metadata>
<defs>
<font id="RT_VickermanBold" horiz-adv-x="1241">
<font-face units-per-em="2048" ascent="1509" descent="-539"/>
<missing-glyph horiz-adv-x="491"/>
<glyph unicode=" " horiz-adv-x="491"/>
<glyph unicode="	" horiz-adv-x="491"/>
<glyph unicode=" " horiz-adv-x="491"/>
<glyph unicode="!" horiz-adv-x="559" d="M123 124.5q0 65.5 45 112t110.5 46.5t111.5 -46.5t46 -111.5v2q0 -66 -45 -112t-110.5 -46t-111.5 45t-46 110.5zM129 1489h301l-43 -1057h-215z"/>
<glyph unicode="&quot;" horiz-adv-x="944" d="M143 1520h271l-49 -510h-172zM530 1520h271l-49 -510h-172z"/>
<glyph unicode="#" horiz-adv-x="1427" d="M61 397v181h273l84 333h-240v181h285l98 397h182l-98 -397h309l101 397h182l-98 -397h227v-181h-272l-84 -333h239v-181h-284l-99 -397h-182l98 397h-309l-100 -397h-183l99 397h-228zM516 578h311l82 333h-309z"/>
<glyph unicode="$" d="M78 258l217 139q90 -139 225 -161v413q-227 70 -319 162t-92 264q0 168 110.5 277.5t300.5 132.5v182h193v-184q250 -25 385 -240l-219 -137q-80 123 -166 141v-368q74 -23 126 -44.5t111.5 -58.5t96 -82t61.5 -113.5t25 -154.5q0 -176 -112 -287.5t-308 -134.5v-258 h-193v258q-311 27 -442 254zM377 1087q0 -109 143 -159v325q-63 -8 -103 -54t-40 -112zM713 238q68 14 110.5 58t42.5 114q0 68 -36.5 109.5t-116.5 72.5v-354z"/>
<glyph unicode="%" horiz-adv-x="2078" d="M82 1083.5q0 194.5 90 315.5t291 121t291 -120t90 -315q0 -197 -89 -316.5t-292 -119.5q-201 0 -291 120t-90 314.5zM328 1083q0 -238 135 -237.5t135 239.5q0 238 -135 238t-135 -240zM545 -31l741 1520h232l-742 -1520h-231zM1235 403.5q0 194.5 90 315.5t291 121 t291 -120t90 -314q0 -197 -89 -317t-292 -120q-201 0 -291 120t-90 314.5zM1481 403q0 -238 135 -237.5t135 240.5q0 238 -135 237.5t-135 -240.5z"/>
<glyph unicode="&amp;" horiz-adv-x="1400" d="M78 399q0 143 71.5 240.5t223.5 189.5q-158 193 -158 328q0 176 113.5 269.5t308.5 93.5q182 0 289.5 -86t107.5 -228q0 -131 -70.5 -228t-213.5 -190l278 -333q70 98 109 258l237 -58q-63 -250 -182 -393l219 -262h-342l-74 86q-162 -117 -387 -117q-252 0 -391 115.5 t-139 314.5zM352 395q0 -90 71 -145t183 -55q133 0 236 73l-318 379q-98 -68 -135 -120t-37 -132zM477 1180q0 -72 125 -217q180 117 180 239q0 43 -35.5 80t-111.5 37q-86 0 -122 -42t-36 -97z"/>
<glyph unicode="'" horiz-adv-x="557" d="M143 1520h271l-49 -510h-172z"/>
<glyph unicode="(" horiz-adv-x="788" d="M102 561q0 539 377 959h258q-197 -238 -292 -465.5t-95 -493.5q0 -264 95.5 -492.5t291.5 -463.5h-258q-190 215 -283.5 444t-93.5 512z"/>
<glyph unicode=")" horiz-adv-x="788" d="M51 -395q197 236 292 464t95 492q0 266 -95 493.5t-292 465.5h258q377 -420 377 -959q0 -283 -93 -512t-284 -444h-258z"/>
<glyph unicode="*" horiz-adv-x="972" d="M51 1227l96 164l250 -154l-6 283h189l-9 -283l254 154l97 -164l-260 -137l258 -140l-95 -162l-254 156l9 -287h-189l6 285l-250 -156l-94 162l258 142z"/>
<glyph unicode="+" horiz-adv-x="1292" d="M86 635v219h451v451h219v-451h450v-219h-450v-451h-219v451h-451z"/>
<glyph unicode="," horiz-adv-x="559" d="M123 127q0 66 43 111t106 45q78 0 121 -54.5t43 -136.5q0 -195 -180 -444l-109 63q41 57 78 135t39 123q-61 2 -101 48.5t-40 109.5z"/>
<glyph unicode="-" horiz-adv-x="778" d="M68 397v254h643v-254h-643z"/>
<glyph unicode="." horiz-adv-x="559" d="M123 124.5q0 65.5 45 112t110.5 46.5t111.5 -45t46 -111t-45 -112t-110.5 -46t-111.5 45t-46 110.5z"/>
<glyph unicode="/" horiz-adv-x="921" d="M29 -31l614 1551h250l-614 -1551h-250z"/>
<glyph unicode="0" d="M98 743.5q0 178.5 21.5 308.5t76 241.5t161 169t264 57.5t264 -57.5t161 -169t76 -240.5t21.5 -307.5t-21.5 -308.5t-76 -241.5t-161 -169t-264 -57.5t-264 57.5t-161 169t-76 240.5t-21.5 307.5zM385 743q0 -276 48 -409t187.5 -133t187.5 133t48 411q0 276 -48 409.5 t-187.5 133.5t-187.5 -133t-48 -412z"/>
<glyph unicode="1" d="M274 1032v225q254 78 383 263h195v-1520h-277v1133q-135 -74 -301 -101z"/>
<glyph unicode="2" d="M92 1266q74 102 208 178t316 76q213 0 344.5 -116t131.5 -312q0 -174 -85 -316.5t-272 -310.5l-239 -219h641v-246h-1045v199l400 372q172 162 242.5 274.5t70.5 227.5q0 88 -52.5 151.5t-164.5 63.5q-63 0 -124 -31.5t-96.5 -67.5t-84.5 -95z"/>
<glyph unicode="3" d="M63 164l183 180q133 -143 299 -143q127 0 198.5 58t71.5 167q0 225 -291 225h-145v242h84q166 0 240.5 53t74.5 162q0 84 -56 132t-140 48q-162 0 -306 -147l-180 182q193 197 518 197q227 0 339 -108.5t112 -260.5q0 -127 -68.5 -224.5t-201.5 -135.5q307 -59 307 -359 q0 -231 -149.5 -347t-401.5 -116q-300 0 -488 195z"/>
<glyph unicode="4" d="M33 297v219l694 1004h246v-1000h162v-223h-162v-328h-266v328h-674zM305 520h402v580z"/>
<glyph unicode="5" d="M74 164l180 182q131 -145 297 -145q274 0 274 268q0 254 -290 254q-115 0 -240 -59h-137l80 825h800v-246h-577l-31 -336q84 41 207 41q209 0 342 -120.5t133 -348.5q0 -510 -551 -510q-297 0 -487 195z"/>
<glyph unicode="6" d="M98 657q0 176 32 324.5t100.5 272.5t191.5 195t291 71q242 0 411 -136l-145 -196q-68 55 -125 77.5t-139 22.5q-152 0 -235 -119.5t-97 -308.5q156 113 330 113q197 0 323.5 -123t126.5 -358q0 -248 -136 -385.5t-382 -137.5q-274 0 -410.5 181t-136.5 507zM385 668 q0 -70 2 -105q10 -176 77.5 -269t182.5 -93q229 0 230 282q0 256 -236 256q-113 1 -256 -71z"/>
<glyph unicode="7" d="M121 1243v246h1012v-203l-558 -1317h-303l568 1274h-719z"/>
<glyph unicode="8" d="M92 391q0 129 74 232.5t201 164.5q-238 119 -238 347q0 180 130 282.5t362 102.5q227 0 359 -100.5t132 -282.5q0 -231 -238 -349q274 -135 275 -397q0 -205 -143.5 -313.5t-384.5 -108.5q-252 0 -390.5 112.5t-138.5 309.5zM373 393q0 -88 60.5 -144t187.5 -56t187 56 t60 146q0 162 -247 273q-248 -109 -248 -275zM406 1130q0 -123 215 -219q215 96 215 217q0 72 -52.5 120t-163 48t-162.5 -48t-52 -118z"/>
<glyph unicode="9" d="M78 997q0 248 136 385.5t382 137.5q274 0 410.5 -181.5t136.5 -507.5q0 -176 -32 -324.5t-100.5 -272t-191.5 -194.5t-291 -71q-242 0 -411 135l145 197q125 -100 264 -100q152 0 235 119.5t97 308.5q-156 -113 -330 -113q-197 0 -323.5 122.5t-126.5 358.5zM365 1006 q0 -256 235 -256q113 0 256 71q0 72 -2 105q-10 176 -77.5 269t-182.5 93q-229 1 -229 -282z"/>
<glyph unicode=":" horiz-adv-x="559" d="M123 124.5q0 65.5 45 112t110.5 46.5t111.5 -46.5t46 -111.5v2q0 -66 -45 -112t-110.5 -46t-111.5 45t-46 110.5zM123 817.5q0 65.5 45 111.5t110.5 46t111.5 -45t46 -110.5t-45 -111.5t-110.5 -46t-111.5 45t-46 110.5z"/>
<glyph unicode=";" horiz-adv-x="559" d="M123 127q0 66 43 111t106 45q78 0 121 -54.5t43 -136.5q0 -195 -180 -444l-109 63q41 57 78 135t39 123q-61 2 -101 48.5t-40 109.5zM123 817.5q0 65.5 45 111.5t110.5 46t111.5 -45t46 -110.5t-45 -111.5t-110.5 -46t-111.5 45t-46 110.5z"/>
<glyph unicode="&lt;" horiz-adv-x="1292" d="M86 641v207l1120 446v-233l-850 -318l850 -315v-233z"/>
<glyph unicode="=" horiz-adv-x="1292" d="M86 401v220h1120v-220h-1120zM86 868v219h1120v-219h-1120z"/>
<glyph unicode="&gt;" horiz-adv-x="1292" d="M86 195v233l850 315l-850 318v233l1120 -446v-207z"/>
<glyph unicode="?" horiz-adv-x="1062" d="M45 1282q166 238 475 238q209 0 337 -99.5t128 -294.5q0 -184 -129 -311q-94 -90 -270 -186v-201h-256v315q209 113 266 160q115 94 115 211q0 82 -53.5 130t-147.5 48q-156 0 -254 -151zM305 124.5q0 65.5 45 112t110.5 46.5t111.5 -46.5t46 -111.5v2q0 -66 -45 -112 t-110.5 -46t-111.5 45t-46 110.5z"/>
<glyph unicode="@" horiz-adv-x="2039" d="M102 518q0 276 123 504.5t346.5 363t499.5 134.5q424 0 647.5 -232.5t223.5 -652.5q0 -127 -27 -239.5t-82 -211t-155.5 -157t-235.5 -58.5q-92 0 -169 35t-97 113q-143 -117 -314 -117q-184 0 -274 118t-90 308q0 174 54 317.5t179 239.5t303 96q131 0 244 -73l131 57 h102l-94 -782q0 -4 -1 -12.5t-1 -12.5q0 -57 16.5 -85t63.5 -28q61 0 111.5 51.5t80 129t45 158.5t15.5 151q0 713 -680 713q-342 0 -556 -238t-214 -586q0 -338 188.5 -540.5t522.5 -202.5q266 0 469 51l32 -176q-199 -49 -510 -49q-412 0 -654.5 250.5t-242.5 662.5z M764 432q0 -119 39 -172t141 -53q106 0 219 100l60 510q-82 59 -172 60q-100 0 -168 -75t-93.5 -170.5t-25.5 -199.5z"/>
<glyph unicode="A" horiz-adv-x="1411" d="M25 0l510 1489h333l518 -1489h-299l-110 326h-559l-109 -326h-284zM502 575h391l-197 582z"/>
<glyph unicode="B" horiz-adv-x="1345" d="M160 0v1489h495q272 0 397.5 -85t125.5 -269q0 -246 -246 -324q147 -18 234 -109.5t87 -257.5q0 -444 -567 -444h-526zM449 250h169q160 0 246 44t86 159q0 123 -65.5 166t-235.5 43h-200v-412zM449 903h145q154 0 217 45t63 133q0 92 -60 126t-202 34h-163v-338z"/>
<glyph unicode="C" horiz-adv-x="1323" d="M106 743q0 776 656 777q207 0 332 -89.5t184 -211.5l-231 -138q-113 197 -285 197q-188 0 -270 -135t-82 -400q0 -532 352 -532q139 0 303 131l174 -207q-197 -166 -477 -166q-180 0 -310 58.5t-204 167t-108 243.5t-34 305z"/>
<glyph unicode="D" horiz-adv-x="1425" d="M160 0v1489h385q403 0 588.5 -168t185.5 -578q0 -217 -47 -362t-148.5 -229t-237.5 -118t-337 -34h-389zM449 250h98q274 0 371.5 114.5t97.5 380.5q0 262 -100.5 378t-368.5 116h-98v-989z"/>
<glyph unicode="E" horiz-adv-x="1212" d="M160 0v1489h954v-250h-665v-342h600v-246h-600v-401h665v-250h-954z"/>
<glyph unicode="F" horiz-adv-x="1167" d="M160 0v1489h954v-250h-665v-358h598v-246h-598v-635h-289z"/>
<glyph unicode="G" horiz-adv-x="1454" d="M106 743q0 367 161 572t499 205q215 0 341 -82t204 -221l-236 -132q-53 92 -120.5 142.5t-182.5 50.5q-362 0 -362 -530q0 -264 86 -400.5t288 -136.5q106 0 236 49v266h-238v246h527v-655q-258 -147 -527 -148q-676 0 -676 774z"/>
<glyph unicode="H" horiz-adv-x="1437" d="M160 0v1489h289v-592h540v592h289v-1489h-289v639h-540v-639h-289z"/>
<glyph unicode="I" horiz-adv-x="608" d="M160 0v1489h289v-1489h-289z"/>
<glyph unicode="J" horiz-adv-x="909" d="M12 29l90 231q111 -49 197 -49q106 0 144 65.5t38 225.5v987h289v-1071q0 -242 -112.5 -345.5t-319.5 -103.5q-179 1 -326 60z"/>
<glyph unicode="K" horiz-adv-x="1392" d="M160 0v1489h289v-629l540 629h338l-481 -547l522 -942h-330l-389 719l-200 -225v-494h-289z"/>
<glyph unicode="L" horiz-adv-x="1114" d="M160 0v1489h289v-1239h624v-250h-913z"/>
<glyph unicode="M" horiz-adv-x="1697" d="M160 0v1489h360l338 -678l326 678h354v-1489h-274v1073l-332 -696h-150l-348 694v-1071h-274z"/>
<glyph unicode="N" horiz-adv-x="1480" d="M160 0v1489h348l543 -1014v1014h270v-1489h-315l-576 1071v-1071h-270z"/>
<glyph unicode="O" horiz-adv-x="1476" d="M106 743q0 776 633 777q330 0 480.5 -208t150.5 -569q0 -358 -150.5 -566t-480.5 -208q-633 0 -633 774zM410 743.5q0 -270.5 79.5 -401.5t249.5 -131q328 0 328 532q0 535 -328 535q-170 0 -249.5 -132t-79.5 -402.5z"/>
<glyph unicode="P" horiz-adv-x="1255" d="M160 0v1489h436q301 0 439.5 -118t138.5 -365q0 -254 -136.5 -376t-443.5 -122h-145v-508h-289zM449 754h135q156 0 221 60t65 192q0 123 -68.5 179t-215.5 56h-137v-487z"/>
<glyph unicode="Q" horiz-adv-x="1476" d="M106 743q0 776 633 777q330 0 480.5 -208t150.5 -569q0 -459 -227 -639l145 -194l-205 -143l-153 229q-92 -27 -191 -27q-633 0 -633 774zM410 743.5q0 -270.5 79.5 -401.5t249.5 -131q20 0 37 2l-121 158l205 143l123 -184q84 119 84 413q0 535 -328 535 q-170 0 -249.5 -132t-79.5 -402.5z"/>
<glyph unicode="R" horiz-adv-x="1335" d="M160 0v1489h493q274 0 410.5 -102.5t136.5 -339.5q0 -319 -260 -408l317 -639h-319l-270 586h-219v-586h-289zM449 827h174q145 0 209.5 48.5t64.5 166.5q0 106 -59.5 152.5t-194.5 46.5h-194v-414z"/>
<glyph unicode="S" horiz-adv-x="1263" d="M72 238l227 145q59 -92 140 -132t202 -40q100 0 174 45t74 139q0 96 -69.5 143.5t-248.5 92.5q-254 63 -360.5 165.5t-106.5 293.5q0 195 141.5 312.5t375.5 117.5q356 0 514 -256l-228 -144q-102 158 -286 158q-113 0 -173.5 -47t-60.5 -129q0 -76 64.5 -120t214.5 -79 q90 -20 151.5 -38.5t134 -56.5t116.5 -87t73.5 -128t29.5 -179q0 -205 -143 -325t-391 -120q-409 1 -565 269z"/>
<glyph unicode="T" horiz-adv-x="1173" d="M25 1239v250h1124v-250h-418v-1239h-289v1239h-417z"/>
<glyph unicode="U" horiz-adv-x="1390" d="M139 586v903h289v-877q0 -219 57.5 -310t208.5 -91q154 0 211.5 93t57.5 304v881h288v-903q0 -324 -138 -470.5t-419 -146.5q-279 0 -417 146.5t-138 470.5z"/>
<glyph unicode="V" horiz-adv-x="1345" d="M25 1489h301l354 -1092l354 1092h287l-498 -1489h-305z"/>
<glyph unicode="W" horiz-adv-x="1878" d="M37 1489h289l215 -1016l272 1016h254l283 -1016l213 1016h278l-342 -1489h-282l-281 1008l-270 -1008h-293z"/>
<glyph unicode="X" horiz-adv-x="1312" d="M33 0l467 745l-453 744h332l285 -496l292 496h322l-461 -735l463 -754h-332l-293 508l-301 -508h-321z"/>
<glyph unicode="Y" horiz-adv-x="1308" d="M25 1489h323l311 -610l322 610h303l-487 -887v-602h-289v586z"/>
<glyph unicode="Z" d="M70 0v213l690 1026h-656v250h1026v-203l-698 -1036h719v-250h-1081z"/>
<glyph unicode="[" horiz-adv-x="753" d="M143 -395v1884h529v-193h-283v-1499h283v-192h-529z"/>
<glyph unicode="\" horiz-adv-x="921" d="M29 1520h250l614 -1551h-250z"/>
<glyph unicode="]" horiz-adv-x="753" d="M82 -203h283v1499h-283v193h528v-1884h-528v192z"/>
<glyph unicode="^" horiz-adv-x="1181" d="M127 858l367 662h194l367 -662h-240l-223 408l-225 -408h-240z"/>
<glyph unicode="_" horiz-adv-x="1024" d="M-12 -154h1048v-102h-1048v102z"/>
<glyph unicode="`" horiz-adv-x="716" d="M12 1569h285l219 -334h-197z"/>
<glyph unicode="a" horiz-adv-x="1093" d="M74 299q0 174 112.5 257t321.5 103l188 19v43q0 82 -43 113.5t-141 31.5q-154 0 -272 -100l-140 178q158 135 426 135q225 0 331 -82t106 -274v-723h-250v82q-154 -113 -320 -113q-150 0 -234.5 89t-84.5 241zM340 307q0 -133 137 -133q104 0 219 84v238l-112 -13 q-131 -14 -187.5 -56t-56.5 -120z"/>
<glyph unicode="b" horiz-adv-x="1171" d="M139 -14v1503h267v-508q147 98 296 98q193 0 290.5 -150.5t97.5 -396.5q0 -238 -118 -400.5t-321 -162.5q-129 0 -266 58l-143 -41h-103zM406 229q88 -39 174 -39q106 0 170.5 90.5t64.5 247.5q0 324 -205 324q-84 0 -204 -90v-533z"/>
<glyph unicode="c" horiz-adv-x="1021" d="M82 522q0 260 120 408.5t376 148.5q268 0 399 -202l-193 -134q-74 115 -202.5 115t-177 -86t-48.5 -250q0 -172 53.5 -252t200.5 -80q104 0 226 82l131 -190q-162 -113 -385 -113q-500 0 -500 553z"/>
<glyph unicode="d" horiz-adv-x="1171" d="M82 516q0 240 118.5 401.5t334.5 161.5q125 0 231 -45v455h266v-1489h-250v82q-150 -113 -313 -113q-193 0 -290 150.5t-97 396.5zM356 520q0 -330 211 -330q90 0 199 91v538q-88 39 -174 39q-106 0 -171 -90t-65 -248z"/>
<glyph unicode="e" horiz-adv-x="1116" d="M82 516q0 262 123 412.5t379 150.5q223 0 338.5 -134t115.5 -376v-137h-676q16 -242 238 -242q145 0 254 76l133 -192q-145 -104 -383 -105q-522 0 -522 547zM362 625h422q0 106 -51 173.5t-145 67.5q-208 1 -226 -241z"/>
<glyph unicode="f" horiz-adv-x="708" d="M25 827v222h163v92q0 86 14.5 148.5t52.5 117.5t113.5 84t190.5 29q100 0 232 -41l-64 -203q-84 33 -137 33q-82 0 -108.5 -35t-26.5 -133v-92h231v-222h-231v-827h-267v827h-163z"/>
<glyph unicode="g" horiz-adv-x="1163" d="M82 530q0 225 115.5 387t322.5 162q143 0 266 -57l146 41h100v-1024q0 -229 -113.5 -331.5t-355.5 -102.5q-258 0 -434 108l115 197q133 -92 307 -92q121 0 168 46t47 154v82q-152 -100 -297 -100q-104 0 -182 46t-121 124t-63.5 168t-20.5 192zM356 532 q0 -143 51.5 -227t157.5 -84q90 0 201 90v510q-96 37 -174 37q-117 0 -176.5 -92.5t-59.5 -233.5z"/>
<glyph unicode="h" horiz-adv-x="1173" d="M139 0v1489h267v-533q176 123 329 123q160 0 233.5 -96t73.5 -291v-692h-266v616q0 121 -27.5 168t-99.5 47q-94 0 -243 -102v-729h-267z"/>
<glyph unicode="i" horiz-adv-x="544" d="M123 1370.5q0 61.5 44 105.5t105.5 44t105.5 -44t44 -105.5t-44 -105.5t-105.5 -44t-105.5 44t-44 105.5zM139 0v1049h267v-1049h-267z"/>
<glyph unicode="j" horiz-adv-x="565" d="M-158 -358l62 208q76 -25 147 -24q63 0 86 39t23 137v1047h266v-1059q0 -195 -82 -290t-278 -95q-105 0 -224 37zM135 1370.5q0 61.5 44 105.5t105.5 44t105.5 -44t44 -105.5t-44 -105.5t-105.5 -44t-105.5 44t-44 105.5z"/>
<glyph unicode="k" horiz-adv-x="1099" d="M139 0v1489h267v-827l339 387h310l-365 -404l389 -645h-301l-260 453l-112 -125v-328h-267z"/>
<glyph unicode="l" horiz-adv-x="647" d="M131 315v1174h266v-1135q0 -98 18.5 -131t67.5 -33q57 0 103 17l61 -207q-113 -31 -227 -31q-164 0 -226.5 83t-62.5 263z"/>
<glyph unicode="m" horiz-adv-x="1761" d="M139 0v1049h250v-103q193 133 330 133q195 0 260 -149q211 150 352 149q156 0 227.5 -96t71.5 -291v-692h-266v616q0 121 -25.5 168t-93.5 47q-80 0 -229 -102q2 -12 2 -37v-692h-266v616q0 121 -25 168t-94 47q-78 0 -227 -102v-729h-267z"/>
<glyph unicode="n" horiz-adv-x="1173" d="M139 0v1049h250v-103q193 133 346 133q160 0 233.5 -96t73.5 -291v-692h-266v616q0 121 -27.5 168t-99.5 47q-94 0 -243 -102v-729h-267z"/>
<glyph unicode="o" horiz-adv-x="1153" d="M82 522q0 246 122 401.5t374 155.5q250 0 371.5 -155.5t121.5 -401.5q0 -242 -123 -397.5t-370 -155.5q-170 0 -285 78t-163 198.5t-48 276.5zM356 522q0 -332 222 -332q219 0 219 332q0 336 -219 336q-222 0 -222 -336z"/>
<glyph unicode="p" horiz-adv-x="1171" d="M139 -395v1444h250v-82q150 113 313 112q195 0 291.5 -147.5t96.5 -399.5q0 -254 -121 -408.5t-318 -154.5q-150 0 -245 45v-409h-267zM406 229q88 -39 174 -39q109 0 172 89.5t63 248.5q0 317 -205 318q-96 0 -204 -90v-527z"/>
<glyph unicode="q" horiz-adv-x="1171" d="M82 516q0 238 117.5 400.5t320.5 162.5q129 0 266 -57l144 41h102v-1458h-266v465q-133 -100 -297 -101q-193 0 -290 150.5t-97 396.5zM356 520q0 -330 211 -330q90 0 199 91v538q-88 39 -174 39q-106 0 -171 -90t-65 -248z"/>
<glyph unicode="r" horiz-adv-x="835" d="M139 0v1049h250v-156q84 86 155.5 129t164.5 43q70 0 110 -21l-45 -260q-37 10 -88 11q-137 0 -280 -113v-682h-267z"/>
<glyph unicode="s" horiz-adv-x="1015" d="M66 150l180 145q88 -113 256 -113q195 0 194 107q0 47 -35.5 70.5t-144.5 41.5q-94 16 -161.5 38t-129 60t-93.5 102.5t-32 154.5q0 162 123 242.5t301 80.5q303 0 410 -174l-195 -127q-72 88 -219 88q-80 0 -125 -26.5t-45 -73.5q0 -51 53.5 -75.5t182.5 -47.5 q84 -14 140 -32.5t110.5 -54.5t82 -98.5t27.5 -150.5q0 -174 -127 -256t-319 -82q-311 1 -434 181z"/>
<glyph unicode="t" horiz-adv-x="741" d="M23 827v222h149v358h266v-358h248v-222h-248v-452q0 -109 21.5 -147t91.5 -38q59 0 121 21l59 -205q-123 -37 -252 -37q-176 0 -241.5 87t-65.5 288v483h-149z"/>
<glyph unicode="u" horiz-adv-x="1173" d="M131 356v693h266v-617q0 -121 27 -168t100 -47q94 0 244 102v730h266v-1049h-250v102q-193 -133 -346 -133q-160 0 -233.5 96t-73.5 291z"/>
<glyph unicode="v" horiz-adv-x="1013" d="M20 1049h281l211 -666l213 666h268l-383 -1049h-209z"/>
<glyph unicode="w" horiz-adv-x="1505" d="M25 1049h272l154 -654l219 654h178l213 -650l160 650h260l-293 -1049h-213l-225 664l-232 -664h-203z"/>
<glyph unicode="x" horiz-adv-x="1054" d="M31 0l352 520l-348 529h303l194 -322l201 322h291l-350 -519l350 -530h-303l-197 328l-202 -328h-291z"/>
<glyph unicode="y" horiz-adv-x="1058" d="M-20 -360l61 208q66 -29 156 -28q66 0 103.5 37t78.5 135l20 49l-379 1008h281l227 -689l246 689h268l-434 -1135q-63 -168 -162.5 -238.5t-248.5 -70.5q-113 0 -217 35z"/>
<glyph unicode="z" horiz-adv-x="935" d="M53 0v162l477 680h-464v207h800v-158l-479 -682h496v-209h-830z"/>
<glyph unicode="{" horiz-adv-x="894" d="M61 459v209h9q150 0 210 92t60 264v115q0 186 99.5 283.5t283.5 97.5h111v-195h-23q-145 0 -187 -56.5t-42 -207.5v-111q0 -156 -63.5 -249t-196.5 -140q260 -88 260 -387v-111q0 -152 42 -208t187 -56h23v-194h-111q-186 0 -284.5 98t-98.5 283v116q0 170 -60.5 263.5 t-209.5 93.5h-9z"/>
<glyph unicode="|" horiz-adv-x="696" d="M225 -395v1915h246v-1915h-246z"/>
<glyph unicode="}" horiz-adv-x="894" d="M61 -201h23q145 0 187 56.5t42 207.5v111q0 299 260 387q-133 47 -196.5 140.5t-63.5 248.5v111q0 152 -42 208t-187 56h-23v195h111q184 0 283.5 -97.5t99.5 -283.5v-115q0 -172 60.5 -264t209.5 -92h9v-209h-9q-150 0 -210 -93.5t-60 -263.5v-116q0 -184 -98.5 -282.5 t-284.5 -98.5h-111v194z"/>
<glyph unicode="~" horiz-adv-x="1228" d="M121 567v242q141 127 274 127q86 0 264 -94q123 -63 185 -64q111 0 266 144v-242q-152 -127 -264 -127q-59 0 -113.5 19.5t-177.5 82.5q-111 55 -164 56q-110 -1 -270 -144z"/>
<glyph unicode="¡" horiz-adv-x="559" d="M123 921.5q0 65.5 45 111.5t110.5 46t111.5 -45t46 -110.5t-45 -111.5t-110.5 -46t-111.5 45t-46 110.5zM129 -395l43 1026h215l43 -1026h-301z"/>
<glyph unicode="¢" d="M125 522q0 508 440 553v307h189v-311q205 -27 319 -194l-194 -134q-57 86 -125 101v-647q78 14 176 75l131 -190q-135 -88 -307 -107v-309h-189v307q-440 45 -440 549zM391 522q0 -139 39 -219t135 -100v645q-174 -29 -174 -326z"/>
<glyph unicode="£" d="M125 0v223q96 23 138 118t42 208q0 43 -2 61h-170v215h129q-51 190 -51 283q0 203 137 307.5t350 104.5q326 0 482 -248l-203 -158q-117 174 -268 174q-211 0 -211 -215q0 -35 9 -80t24 -99l20 -69h334v-215h-301q0 -6 1 -22.5t1 -22.5q0 -92 -38 -182t-102 -137h721 v-246h-1042z"/>
<glyph unicode="¤" d="M102 346l187 191q-63 94 -64 208q0 117 62 211l-185 189l117 117l187 -183q98 66 212 66q119 0 216 -64l184 181l119 -117l-181 -184q61 -92 62 -216q0 -111 -64 -213l183 -186l-119 -119l-187 185q-90 -59 -213 -60q-115 0 -208 62l-191 -187zM420 745q0 -86 57.5 -146 t140.5 -60q90 0 148.5 59t58.5 147.5t-57 149.5t-150 61q-86 0 -142 -61.5t-56 -149.5z"/>
<glyph unicode="¥" d="M18 1489h324l285 -621l293 621h303l-336 -649h254v-174h-344l-33 -64v-76h377v-174h-377v-352h-289v352h-375v174h375v60l-41 80h-334v174h246z"/>
<glyph unicode="¦" horiz-adv-x="696" d="M225 242h246v-637h-246v637zM225 883v637h246v-637h-246z"/>
<glyph unicode="§" horiz-adv-x="1058" d="M61 584q0 184 205 329q-143 119 -143 269q0 178 124 258t306 80q283 0 428 -189l-186 -155q-98 119 -238 118q-166 0 -166 -108q0 -49 78 -107q41 -31 155.5 -100.5t174.5 -112.5q199 -147 198 -327q0 -182 -204 -328q143 -115 143 -268q0 -178 -122 -258t-306 -80 q-283 0 -430 188l186 156q102 -119 244 -119q76 0 118 27.5t42 79.5q0 47 -44 84.5t-182 119.5l-55 33q-96 59 -157.5 106.5t-115 129.5t-53.5 174zM319 590q0 -92 273 -246q147 102 147 186q0 59 -98 136q-55 43 -174 114q-148 -100 -148 -190z"/>
<glyph unicode="¨" horiz-adv-x="716" d="M25 1382.5q0 55.5 38.5 94.5t94 39t94.5 -39t39 -94.5t-39 -94.5t-94.5 -39t-94 39t-38.5 94.5zM426 1382.5q0 55.5 39 94.5t94 39t94 -39t39 -94.5t-39 -94.5t-94 -39t-94 39t-39 94.5z"/>
<glyph unicode="©" horiz-adv-x="1935" d="M102 655.5q0 358.5 254 611.5t612.5 253t611.5 -253t253 -611.5t-253 -612.5t-611.5 -254t-612.5 254t-254 612.5zM279 655q0 -287 202.5 -488.5t487 -201.5t486.5 202t202 488.5t-202 487t-486 200.5q-287 0 -488.5 -201.5t-201.5 -486.5zM575 670q0 477 414 477 q231 0 330 -195l-160 -92q-70 121 -170 121q-109 0 -158 -78t-49 -233q0 -311 207 -312q78 0 187 84l120 -139q-133 -109 -307 -108q-414 0 -414 475z"/>
<glyph unicode="ª" horiz-adv-x="800" d="M57 1014q0 211 308 235l129 11v24q0 49 -29 69.5t-96 20.5q-106 0 -191 -65l-104 118q119 92 305 93q160 0 234.5 -53.5t74.5 -180.5v-469h-182v49q-102 -68 -221 -67q-106 0 -167 58.5t-61 156.5zM252 1018q0 -80 92 -80q72 0 150 51v146l-74 -7q-168 -14 -168 -110z "/>
<glyph unicode="«" horiz-adv-x="1255" d="M41 524l362 471h271l-371 -471l371 -471h-271zM582 524l362 471h270l-370 -471l370 -471h-270z"/>
<glyph unicode="¬" horiz-adv-x="1292" d="M86 868v219h1120v-686h-219v467h-901z"/>
<glyph unicode="­" horiz-adv-x="778" d="M68 397v254h643v-254h-643z"/>
<glyph unicode="®" horiz-adv-x="1935" d="M102 655.5q0 358.5 254 611.5t612.5 253t611.5 -253t253 -611.5t-253 -612.5t-611.5 -254t-612.5 254t-254 612.5zM279 655q0 -287 202.5 -488.5t487 -201.5t486.5 202t202 488.5t-202 487t-486 200.5q-287 0 -488.5 -201.5t-201.5 -486.5zM637 215v915h315 q172 0 259 -64.5t87 -211.5q0 -195 -155 -252l196 -387h-219l-166 350h-118v-350h-199zM836 731h96q86 0 123 27.5t37 93.5q0 59 -34 84t-114 25h-108v-230z"/>
<glyph unicode="¯" horiz-adv-x="716" d="M53 1311v182h611v-182h-611z"/>
<glyph unicode="°" horiz-adv-x="808" d="M102 1218.5q0 124.5 89.5 213t214 88.5t213 -88.5t88.5 -213t-88.5 -214t-213 -89.5t-214 89.5t-89.5 214zM270 1219q0 -57 39 -96.5t97 -39.5q55 0 94 39t39 95q0 57 -39 96t-94 39q-57 0 -96.5 -40t-39.5 -93z"/>
<glyph unicode="±" horiz-adv-x="1292" d="M86 0v219h1120v-219h-1120zM86 743v220h451v450h219v-450h450v-220h-450v-450h-219v450h-451z"/>
<glyph unicode="²" horiz-adv-x="897" d="M68 1362q72 72 158.5 115t228.5 43q147 0 248.5 -61.5t101.5 -188.5q0 -86 -49 -151.5t-156 -143.5l-135 -98h371v-197h-758v158l287 196q113 78 153.5 122t40.5 87q0 33 -31.5 56.5t-95.5 23.5q-115 0 -213 -98z"/>
<glyph unicode="³" horiz-adv-x="897" d="M63 772l130 137q92 -86 206 -86q158 0 158 95q0 104 -172 104h-102v158h61q195 0 195 98q0 33 -31 51.5t-84 18.5q-113 0 -205 -80l-131 131q125 121 358 121q162 0 247 -62.5t85 -154.5q0 -143 -145 -189q170 -43 170 -192q0 -137 -106.5 -205t-282.5 -68 q-197 0 -351 123z"/>
<glyph unicode="´" horiz-adv-x="716" d="M201 1235l219 334h285l-308 -334h-196z"/>
<glyph unicode="µ" horiz-adv-x="1181" d="M139 -395v1444h267v-617q0 -131 23.5 -173t102.5 -42q109 0 244 102v730h266v-1049h-249v102q-156 -133 -285 -133q-51 0 -102 29v-393h-267z"/>
<glyph unicode="¶" horiz-adv-x="1277" d="M41 1053q0 201 139 318.5t369 117.5h688v-189h-166v-1695h-223v1695h-154v-1695h-223v1011q-201 10 -315.5 120t-114.5 317z"/>
<glyph unicode="·" horiz-adv-x="559" d="M123 743.5q0 65.5 45 111.5t110.5 46t111.5 -45t46 -110.5t-45 -111.5t-110.5 -46t-111.5 45t-46 110.5z"/>
<glyph unicode="¸" horiz-adv-x="716" d="M45 -352l55 139q100 -37 203 -37q84 0 84 49q0 76 -162 82l80 137h160l-29 -53q68 -14 111 -62t43 -116q0 -88 -75 -135t-206 -47q-178 0 -264 43z"/>
<glyph unicode="¹" horiz-adv-x="897" d="M156 1139v188q203 57 295 193h165v-846h-237v530q-108 -49 -223 -65z"/>
<glyph unicode="º" horiz-adv-x="831" d="M66 1157q0 160 86 261.5t264 101.5q176 0 263 -101.5t87 -261.5q0 -158 -87 -258t-263 -100t-263 100t-87 258zM264 1157q0 -209 152 -209q150 0 149 209q0 213 -149 213q-152 0 -152 -213z"/>
<glyph unicode="»" horiz-adv-x="1255" d="M41 53l371 471l-371 471h270l363 -471l-363 -471h-270zM582 53l370 471l-370 471h270l362 -471l-362 -471h-270z"/>
<glyph unicode="¼" horiz-adv-x="2007" d="M88 1139v188q203 57 295 193h166v-846h-238v530q-108 -49 -223 -65zM422 -31l741 1520h232l-742 -1520h-231zM1047 129v182l446 529h236v-533h118v-178h-118v-160h-234v160h-448zM1270 301h231v277z"/>
<glyph unicode="½" horiz-adv-x="2007" d="M88 1139v188q203 57 295 193h166v-846h-238v530q-108 -49 -223 -65zM422 -31l741 1520h232l-742 -1520h-231zM1147 682q72 72 159 115t228 43q147 0 248.5 -61.5t101.5 -188.5q0 -86 -49 -151.5t-156 -143.5l-135 -98h371v-197h-758v158l287 196q113 78 153.5 122 t40.5 87q0 33 -31.5 56.5t-95.5 23.5q-115 0 -213 -98z"/>
<glyph unicode="¾" horiz-adv-x="2007" d="M63 772l130 137q92 -86 206 -86q158 0 158 95q0 104 -172 104h-102v158h61q195 0 195 98q0 33 -31 51.5t-84 18.5q-113 0 -205 -80l-131 131q125 121 358 121q162 0 247 -62.5t85 -154.5q0 -143 -145 -189q170 -43 170 -192q0 -137 -106.5 -205t-282.5 -68 q-197 0 -351 123zM565 -31l742 1520h231l-741 -1520h-232zM1149 129v182l446 529h236v-533h119v-178h-119v-160h-234v160h-448zM1372 301h232v277z"/>
<glyph unicode="¿" horiz-adv-x="1062" d="M78 -10q0 98 29.5 167.5t99.5 137.5q84 80 270 182v154h256v-269q-18 -10 -62 -32l-72 -37q-28 -14 -65.5 -38t-66.5 -48q-115 -94 -115 -205q0 -82 52.5 -126t148.5 -44q156 0 254 152l211 -142q-166 -238 -475 -237q-211 0 -338 95t-127 290zM444 921.5 q0 65.5 45.5 111.5t111 46t111.5 -45t46 -110.5t-45 -111.5t-110.5 -46t-112 45t-46.5 110.5z"/>
<glyph unicode="À" horiz-adv-x="1411" d="M25 0l510 1489h333l518 -1489h-299l-110 326h-559l-109 -326h-284zM360 1935h285l219 -333h-196zM502 575h391l-197 582z"/>
<glyph unicode="Á" horiz-adv-x="1411" d="M25 0l510 1489h333l518 -1489h-299l-110 326h-559l-109 -326h-284zM502 575h391l-197 582zM535 1602l219 333h284l-307 -333h-196z"/>
<glyph unicode="Â" horiz-adv-x="1411" d="M25 0l510 1489h333l518 -1489h-299l-110 326h-559l-109 -326h-284zM356 1602l222 333h247l219 -333h-196l-148 167l-147 -167h-197zM502 575h391l-197 582z"/>
<glyph unicode="Ã" horiz-adv-x="1411" d="M25 0l510 1489h333l518 -1489h-299l-110 326h-559l-109 -326h-284zM311 1602q4 121 62.5 197.5t173.5 76.5q72 0 159 -48t113 -48q33 0 56.5 30.5t25.5 65.5h158q-18 -274 -238 -274q-76 0 -157.5 49t-112.5 49q-37 0 -57.5 -30t-22.5 -68h-160zM502 575h391l-197 582z "/>
<glyph unicode="Ä" horiz-adv-x="1411" d="M25 0l510 1489h333l518 -1489h-299l-110 326h-559l-109 -326h-284zM369 1734.5q0 55.5 38.5 94.5t94 39t94.5 -39t39 -94.5t-39 -94t-94.5 -38.5t-94 38.5t-38.5 94zM502 575h391l-197 582zM770 1734.5q0 55.5 39 94.5t94 39t94 -39t39 -94.5t-39 -94t-94 -38.5t-94 38.5 t-39 94z"/>
<glyph unicode="Å" horiz-adv-x="1411" d="M25 0l510 1489h333l518 -1489h-299l-110 326h-559l-109 -326h-284zM475 1788q0 96 66.5 162.5t160.5 66.5q96 0 163 -66.5t67 -162.5q0 -94 -66.5 -160.5t-163 -66.5t-162 65.5t-65.5 161.5zM502 575h391l-197 582zM604 1788q0 -41 29 -69.5t69.5 -28.5t70.5 28.5 t30 69.5t-30 70.5t-70.5 29.5t-69.5 -29.5t-29 -70.5z"/>
<glyph unicode="Æ" horiz-adv-x="1884" d="M16 0l590 1489h1180v-250h-625v-342h559v-246h-559v-401h625v-250h-914v326h-442l-125 -326h-289zM528 575h344v664h-86z"/>
<glyph unicode="Ç" horiz-adv-x="1323" d="M106 743q0 776 656 777q207 0 332 -89.5t184 -211.5l-231 -138q-113 197 -285 197q-188 0 -270 -135t-82 -400q0 -532 352 -532q139 0 303 131l174 -207q-178 -150 -426 -164l-2 -6q68 -14 111 -62t43 -116q0 -88 -75 -135t-206 -47q-178 0 -264 43l55 139 q102 -37 203 -37q84 0 84 49q0 76 -162 82l55 94q-549 63 -549 768z"/>
<glyph unicode="È" horiz-adv-x="1212" d="M160 0v1489h954v-250h-665v-342h600v-246h-600v-401h665v-250h-954zM279 1935h284l219 -333h-196z"/>
<glyph unicode="É" horiz-adv-x="1212" d="M160 0v1489h954v-250h-665v-342h600v-246h-600v-401h665v-250h-954zM467 1602l219 333h285l-307 -333h-197z"/>
<glyph unicode="Ê" horiz-adv-x="1212" d="M160 0v1489h954v-250h-665v-342h600v-246h-600v-401h665v-250h-954zM289 1602l221 333h248l219 -333h-197l-147 167l-148 -167h-196z"/>
<glyph unicode="Ë" horiz-adv-x="1212" d="M160 0v1489h954v-250h-665v-342h600v-246h-600v-401h665v-250h-954zM317 1734.5q0 55.5 39 94.5t94.5 39t94.5 -39t39 -94.5t-39 -94t-94.5 -38.5t-94.5 38.5t-39 94zM719 1734.5q0 55.5 39 94.5t94 39t94 -39t39 -94.5t-39 -94t-94 -38.5t-94 38.5t-39 94z"/>
<glyph unicode="Ì" horiz-adv-x="608" d="M-29 1935h285l219 -333h-196zM160 0v1489h289v-1489h-289z"/>
<glyph unicode="Í" horiz-adv-x="608" d="M111 1602l219 333h284l-307 -333h-196zM160 0v1489h289v-1489h-289z"/>
<glyph unicode="Î" horiz-adv-x="608" d="M-39 1602l221 333h248l219 -333h-196l-148 167l-147 -167h-197zM160 0v1489h289v-1489h-289z"/>
<glyph unicode="Ï" horiz-adv-x="608" d="M-29 1734.5q0 55.5 39 94.5t94.5 39t94.5 -39t39 -94.5t-39 -94t-94.5 -38.5t-94.5 38.5t-39 94zM160 0v1489h289v-1489h-289zM371 1734.5q0 55.5 39 94.5t94 39t94 -39t39 -94.5t-39 -94t-94 -38.5t-94 38.5t-39 94z"/>
<glyph unicode="Ð" horiz-adv-x="1425" d="M37 643v209h123v637h385q403 0 588.5 -168t185.5 -578q0 -217 -47 -362t-148.5 -229t-237.5 -118t-337 -34h-389v643h-123zM449 250h98q274 0 371.5 114.5t97.5 380.5q0 262 -100.5 378t-368.5 116h-98v-387h286v-209h-286v-393z"/>
<glyph unicode="Ñ" horiz-adv-x="1480" d="M160 0v1489h348l543 -1014v1014h270v-1489h-315l-576 1071v-1071h-270zM352 1602q4 121 62.5 197.5t173.5 76.5q72 0 159 -48t113 -48q33 0 56.5 30.5t25.5 65.5h158q-18 -274 -238 -274q-76 0 -157.5 49t-112.5 49q-37 0 -57.5 -30t-22.5 -68h-160z"/>
<glyph unicode="Ò" horiz-adv-x="1476" d="M106 743q0 776 633 777q330 0 480.5 -208t150.5 -569q0 -358 -150.5 -566t-480.5 -208q-633 0 -633 774zM410 743.5q0 -270.5 79.5 -401.5t249.5 -131q328 0 328 532q0 535 -328 535q-170 0 -249.5 -132t-79.5 -402.5zM422 1935h285l219 -333h-197z"/>
<glyph unicode="Ó" horiz-adv-x="1476" d="M106 743q0 776 633 777q330 0 480.5 -208t150.5 -569q0 -358 -150.5 -566t-480.5 -208q-633 0 -633 774zM410 743.5q0 -270.5 79.5 -401.5t249.5 -131q328 0 328 532q0 535 -328 535q-170 0 -249.5 -132t-79.5 -402.5zM549 1602l219 333h285l-308 -333h-196z"/>
<glyph unicode="Ô" horiz-adv-x="1476" d="M106 743q0 776 633 777q330 0 480.5 -208t150.5 -569q0 -358 -150.5 -566t-480.5 -208q-633 0 -633 774zM393 1602l221 333h248l219 -333h-196l-148 167l-147 -167h-197zM410 743.5q0 -270.5 79.5 -401.5t249.5 -131q328 0 328 532q0 535 -328 535q-170 0 -249.5 -132 t-79.5 -402.5z"/>
<glyph unicode="Õ" horiz-adv-x="1476" d="M106 743q0 776 633 777q330 0 480.5 -208t150.5 -569q0 -358 -150.5 -566t-480.5 -208q-633 0 -633 774zM342 1602q4 121 62.5 197.5t173.5 76.5q72 0 158.5 -48t113.5 -48q33 0 56.5 30.5t25.5 65.5h158q-18 -274 -238 -274q-76 0 -158 49t-112 49q-37 0 -57.5 -30 t-22.5 -68h-160zM410 743.5q0 -270.5 79.5 -401.5t249.5 -131q328 0 328 532q0 535 -328 535q-170 0 -249.5 -132t-79.5 -402.5z"/>
<glyph unicode="Ö" horiz-adv-x="1476" d="M106 743q0 776 633 777q330 0 480.5 -208t150.5 -569q0 -358 -150.5 -566t-480.5 -208q-633 0 -633 774zM406 1734.5q0 55.5 38.5 94.5t94 39t94.5 -39t39 -94.5t-39 -94t-94.5 -38.5t-94 38.5t-38.5 94zM410 743.5q0 -270.5 79.5 -401.5t249.5 -131q328 0 328 532 q0 535 -328 535q-170 0 -249.5 -132t-79.5 -402.5zM807 1734.5q0 55.5 39 94.5t94 39t94 -39t39 -94.5t-39 -94t-94 -38.5t-94 38.5t-39 94z"/>
<glyph unicode="×" horiz-adv-x="1292" d="M158 412l334 331l-334 334l155 156l332 -334l334 334l156 -156l-334 -334l334 -331l-156 -156l-334 334l-332 -334z"/>
<glyph unicode="Ø" horiz-adv-x="1476" d="M106 743q0 776 633 777q168 0 293 -58l60 103h235l-129 -226q172 -199 172 -596q0 -358 -150.5 -566t-480.5 -208q-170 0 -295 58l-82 -142h-235l152 265q-173 194 -173 593zM410 743q0 -182 36 -301l455 793q-66 43 -162 43q-170 0 -249.5 -132.5t-79.5 -402.5zM575 254 q68 -43 164 -43q328 0 328 532q0 182 -37 304z"/>
<glyph unicode="Ù" horiz-adv-x="1390" d="M139 586v903h289v-877q0 -219 57.5 -310t208.5 -91q154 0 211.5 93t57.5 304v881h288v-903q0 -324 -138 -470.5t-419 -146.5q-279 0 -417 146.5t-138 470.5zM344 1935h285l219 -333h-197z"/>
<glyph unicode="Ú" horiz-adv-x="1390" d="M139 586v903h289v-877q0 -219 57.5 -310t208.5 -91q154 0 211.5 93t57.5 304v881h288v-903q0 -324 -138 -470.5t-419 -146.5q-279 0 -417 146.5t-138 470.5zM520 1602l219 333h285l-307 -333h-197z"/>
<glyph unicode="Û" horiz-adv-x="1390" d="M139 586v903h289v-877q0 -219 57.5 -310t208.5 -91q154 0 211.5 93t57.5 304v881h288v-903q0 -324 -138 -470.5t-419 -146.5q-279 0 -417 146.5t-138 470.5zM350 1602l221 333h248l219 -333h-196l-148 167l-147 -167h-197z"/>
<glyph unicode="Ü" horiz-adv-x="1390" d="M139 586v903h289v-877q0 -219 57.5 -310t208.5 -91q154 0 211.5 93t57.5 304v881h288v-903q0 -324 -138 -470.5t-419 -146.5q-279 0 -417 146.5t-138 470.5zM360 1734.5q0 55.5 39 94.5t94.5 39t94.5 -39t39 -94.5t-39 -94t-94.5 -38.5t-94.5 38.5t-39 94zM762 1734.5 q0 55.5 39 94.5t94 39t94 -39t39 -94.5t-39 -94t-94 -38.5t-94 38.5t-39 94z"/>
<glyph unicode="Ý" horiz-adv-x="1308" d="M25 1489h323l311 -610l322 610h303l-487 -887v-602h-289v586zM508 1602l219 333h285l-307 -333h-197z"/>
<glyph unicode="Þ" horiz-adv-x="1255" d="M160 0v1489h289v-236h147q301 0 439.5 -117.5t138.5 -365.5q0 -254 -136.5 -376t-443.5 -122h-145v-272h-289zM449 518h135q156 0 221 60.5t65 191.5q0 123 -68.5 179.5t-215.5 56.5h-137v-488z"/>
<glyph unicode="ß" horiz-adv-x="1171" d="M139 0v1024q0 496 436 496q193 0 302.5 -84t109.5 -256q0 -125 -61.5 -205t-161.5 -109q326 -55 326 -397q0 -225 -110 -362.5t-316 -137.5q-88 0 -168 15v219q70 -14 151 -15q168 0 168 289q0 154 -78 207t-227 53v213q209 0 209 213q0 63 -37 103.5t-104 40.5 q-172 0 -172 -275v-1032h-267z"/>
<glyph unicode="à" horiz-adv-x="1093" d="M74 299q0 172 113.5 256t320.5 104l188 19v43q0 82 -43 113.5t-141 31.5q-154 0 -272 -100l-140 178q158 135 426 135q225 0 331 -82t106 -274v-723h-250v82q-154 -113 -320 -113q-150 0 -234.5 89t-84.5 241zM182 1569h285l219 -334h-197zM340 307q0 -133 137 -133 q104 0 219 84v238l-112 -13q-131 -14 -187.5 -56t-56.5 -120z"/>
<glyph unicode="á" horiz-adv-x="1093" d="M74 299q0 172 113.5 256t320.5 104l188 19v43q0 82 -43 113.5t-141 31.5q-154 0 -272 -100l-140 178q158 135 426 135q225 0 331 -82t106 -274v-723h-250v82q-154 -113 -320 -113q-150 0 -234.5 89t-84.5 241zM340 307q0 -133 137 -133q104 0 219 84v238l-112 -13 q-131 -14 -187.5 -56t-56.5 -120zM375 1235l219 334h285l-308 -334h-196z"/>
<glyph unicode="â" horiz-adv-x="1093" d="M74 299q0 172 113.5 256t320.5 104l188 19v43q0 82 -43 113.5t-141 31.5q-154 0 -272 -100l-140 178q158 135 426 135q225 0 331 -82t106 -274v-723h-250v82q-154 -113 -320 -113q-150 0 -234.5 89t-84.5 241zM188 1235l222 334h247l220 -334h-197l-148 168l-147 -168 h-197zM340 307q0 -133 137 -133q104 0 219 84v238l-112 -13q-131 -14 -187.5 -56t-56.5 -120z"/>
<glyph unicode="ã" horiz-adv-x="1093" d="M74 299q0 172 113.5 256t320.5 104l188 19v43q0 82 -43 113.5t-141 31.5q-154 0 -272 -100l-140 178q158 135 426 135q225 0 331 -82t106 -274v-723h-250v82q-154 -113 -320 -113q-150 0 -234.5 89t-84.5 241zM158 1264q4 121 62.5 197.5t172.5 76.5q72 0 159 -48 t114 -48q33 0 56 30.5t26 65.5h157q-18 -274 -237 -274q-76 0 -158 49t-113 49q-37 0 -57.5 -29.5t-22.5 -68.5h-159zM340 307q0 -133 137 -133q104 0 219 84v238l-112 -13q-131 -14 -187.5 -56t-56.5 -120z"/>
<glyph unicode="ä" horiz-adv-x="1093" d="M74 299q0 174 112.5 257t321.5 103l188 19v43q0 82 -43 113.5t-141 31.5q-154 0 -272 -100l-140 178q158 135 426 135q225 0 331 -82t106 -274v-723h-250v82q-154 -113 -320 -113q-150 0 -234.5 89t-84.5 241zM201 1382.5q0 55.5 39 94.5t94 39t94 -39t39 -94.5 t-39 -94.5t-94 -39t-94 39t-39 94.5zM340 307q0 -133 137 -133q104 0 219 84v238l-112 -13q-131 -14 -187.5 -56t-56.5 -120zM602 1382.5q0 55.5 39 94.5t94.5 39t94 -39t38.5 -94.5t-38.5 -94.5t-94 -39t-94.5 39t-39 94.5z"/>
<glyph unicode="å" horiz-adv-x="1093" d="M74 299q0 172 113.5 256t320.5 104l188 19v43q0 82 -43 113.5t-141 31.5q-154 0 -272 -100l-140 178q158 135 426 135q225 0 331 -82t106 -274v-723h-250v82q-154 -113 -320 -113q-150 0 -234.5 89t-84.5 241zM313 1399q0 96 66.5 162.5t161 66.5t162 -66.5t67.5 -162.5 q0 -94 -66.5 -161t-162.5 -67q-94 0 -161 66t-67 162zM340 307q0 -133 137 -133q104 0 219 84v238l-112 -13q-131 -14 -187.5 -56t-56.5 -120zM442 1399q0 -41 29 -70t70 -29t70.5 29t29.5 70t-29.5 70.5t-70.5 29.5t-70 -29.5t-29 -70.5z"/>
<glyph unicode="æ" horiz-adv-x="1716" d="M74 299q0 172 113.5 256t320.5 104l188 19v43q0 82 -43 113.5t-141 31.5q-154 0 -272 -100l-140 178q158 135 426 135q276 0 342 -153q102 154 336 153q207 0 320.5 -135t113.5 -375v-137h-675q16 -242 237 -242q145 0 254 76l133 -192q-145 -104 -383 -105 q-283 0 -416 166q-106 -82 -196 -124t-199 -42q-150 0 -234.5 89t-84.5 241zM340 307q0 -133 137 -133q109 0 240 98q-20 68 -21 146v78l-112 -13q-131 -14 -187.5 -56t-56.5 -120zM963 625h421q0 106 -51 173.5t-145 67.5q-207 1 -225 -241z"/>
<glyph unicode="ç" horiz-adv-x="1021" d="M82 522q0 260 120 408.5t376 148.5q268 0 399 -202l-193 -134q-74 115 -202.5 115t-177 -86t-48.5 -250q0 -172 53.5 -252t200.5 -80q104 0 226 82l131 -190q-135 -94 -314 -111l-4 -6q68 -14 111 -62t43 -116q0 -88 -75 -135t-206 -47q-178 0 -264 43l55 139 q100 -37 203 -37q84 0 84 49q0 76 -162 82l54 92q-410 49 -410 549z"/>
<glyph unicode="è" horiz-adv-x="1116" d="M82 516q0 262 123 412.5t379 150.5q223 0 338.5 -134t115.5 -376v-137h-676q16 -242 238 -242q145 0 254 76l133 -192q-145 -104 -383 -105q-522 0 -522 547zM238 1569h284l219 -334h-196zM362 625h422q0 106 -51 173.5t-145 67.5q-208 1 -226 -241z"/>
<glyph unicode="é" horiz-adv-x="1116" d="M82 516q0 262 123 412.5t379 150.5q223 0 338.5 -134t115.5 -376v-137h-676q16 -242 238 -242q145 0 254 76l133 -192q-145 -104 -383 -105q-522 0 -522 547zM362 625h422q0 106 -51 173.5t-145 67.5q-208 1 -226 -241zM385 1235l219 334h285l-307 -334h-197z"/>
<glyph unicode="ê" horiz-adv-x="1116" d="M82 516q0 262 123 412.5t379 150.5q223 0 338.5 -134t115.5 -376v-137h-676q16 -242 238 -242q145 0 254 76l133 -192q-145 -104 -383 -105q-522 0 -522 547zM225 1235l221 334h248l219 -334h-196l-148 168l-147 -168h-197zM362 625h422q0 106 -51 173.5t-145 67.5 q-208 1 -226 -241z"/>
<glyph unicode="ë" horiz-adv-x="1116" d="M82 516q0 262 123 412.5t379 150.5q223 0 338.5 -134t115.5 -376v-137h-676q16 -242 238 -242q145 0 254 76l133 -192q-145 -104 -383 -105q-522 0 -522 547zM250 1382.5q0 55.5 39 94.5t94 39t94 -39t39 -94.5t-39 -94.5t-94 -39t-94 39t-39 94.5zM362 625h422 q0 106 -51 173.5t-145 67.5q-208 1 -226 -241zM651 1382.5q0 55.5 39 94.5t94.5 39t94.5 -39t39 -94.5t-39 -94.5t-94.5 -39t-94.5 39t-39 94.5z"/>
<glyph unicode="ì" horiz-adv-x="544" d="M-57 1569h284l219 -334h-196zM139 0v1049h267v-1049h-267z"/>
<glyph unicode="í" horiz-adv-x="544" d="M119 1235l219 334h285l-308 -334h-196zM139 0v1049h267v-1049h-267z"/>
<glyph unicode="î" horiz-adv-x="544" d="M-72 1235l222 334h247l219 -334h-196l-148 168l-147 -168h-197zM139 0v1049h267v-1049h-267z"/>
<glyph unicode="ï" horiz-adv-x="544" d="M-41 1382.5q0 55.5 39 94.5t94 39t94 -39t39 -94.5t-39 -94.5t-94 -39t-94 39t-39 94.5zM139 0v1049h267v-1049h-267zM319 1382.5q0 55.5 39 94.5t94.5 39t94.5 -39t39 -94.5t-39 -94.5t-94.5 -39t-94.5 39t-39 94.5z"/>
<glyph unicode="ð" horiz-adv-x="1153" d="M82 506q0 229 114.5 386t338.5 157q100 0 157 -48q-55 143 -160 252l-229 -82l-59 144l178 63q-96 94 -180 142h284q61 -33 103 -68l190 68l70 -140l-131 -47q152 -154 232.5 -361.5t80.5 -422.5q0 -262 -120 -421t-376 -159q-246 0 -369.5 153t-123.5 384zM356 506 q0 -139 53.5 -227.5t165.5 -88.5q117 0 169.5 89.5t52.5 228.5q0 145 -55.5 232t-163.5 87q-115 0 -168.5 -88t-53.5 -233z"/>
<glyph unicode="ñ" horiz-adv-x="1173" d="M139 0v1049h250v-103q193 133 346 133q160 0 233.5 -96t73.5 -291v-692h-266v616q0 121 -27.5 168t-99.5 47q-94 0 -243 -102v-729h-267zM209 1264q4 121 62.5 197.5t172.5 76.5q72 0 159 -48t114 -48q33 0 56.5 30.5t25.5 65.5h157q-18 -274 -237 -274q-76 0 -158 49 t-112 49q-37 0 -57.5 -29.5t-22.5 -68.5h-160z"/>
<glyph unicode="ò" horiz-adv-x="1153" d="M82 522q0 246 122 401.5t374 155.5q250 0 371.5 -155.5t121.5 -401.5q0 -242 -123 -397.5t-370 -155.5q-170 0 -285 78t-163 198.5t-48 276.5zM238 1569h284l219 -334h-196zM356 522q0 -332 222 -332q219 0 219 332q0 336 -219 336q-222 0 -222 -336z"/>
<glyph unicode="ó" horiz-adv-x="1153" d="M82 522q0 246 122 401.5t374 155.5q250 0 371.5 -155.5t121.5 -401.5q0 -242 -123 -397.5t-370 -155.5q-170 0 -285 78t-163 198.5t-48 276.5zM356 522q0 -332 222 -332q219 0 219 332q0 336 -219 336q-222 0 -222 -336zM385 1235l219 334h285l-307 -334h-197z"/>
<glyph unicode="ô" horiz-adv-x="1153" d="M82 522q0 246 122 401.5t374 155.5q250 0 371.5 -155.5t121.5 -401.5q0 -242 -123 -397.5t-370 -155.5q-170 0 -285 78t-163 198.5t-48 276.5zM231 1235l222 334h247l220 -334h-197l-148 168l-147 -168h-197zM356 522q0 -332 222 -332q219 0 219 332q0 336 -219 336 q-222 0 -222 -336z"/>
<glyph unicode="õ" horiz-adv-x="1153" d="M82 522q0 246 122 401.5t374 155.5q250 0 371.5 -155.5t121.5 -401.5q0 -242 -123 -397.5t-370 -155.5q-170 0 -285 78t-163 198.5t-48 276.5zM190 1264q4 121 62.5 197.5t173.5 76.5q72 0 159 -48t113 -48q33 0 56.5 30.5t25.5 65.5h158q-18 -274 -238 -274 q-76 0 -157.5 49t-112.5 49q-37 0 -57.5 -29.5t-22.5 -68.5h-160zM356 522q0 -332 222 -332q219 0 219 332q0 336 -219 336q-222 0 -222 -336z"/>
<glyph unicode="ö" horiz-adv-x="1153" d="M82 522q0 246 122 401.5t374 155.5q250 0 371.5 -155.5t121.5 -401.5q0 -242 -123 -397.5t-370 -155.5q-170 0 -285 78t-163 198.5t-48 276.5zM244 1382.5q0 55.5 39 94.5t94 39t94 -39t39 -94.5t-39 -94.5t-94 -39t-94 39t-39 94.5zM356 522q0 -332 222 -332 q219 0 219 332q0 336 -219 336q-222 0 -222 -336zM645 1382.5q0 55.5 39 94.5t94.5 39t94 -39t38.5 -94.5t-38.5 -94.5t-94 -39t-94.5 39t-39 94.5z"/>
<glyph unicode="÷" horiz-adv-x="1292" d="M86 635v219h1120v-219h-1120zM500 329.5q0 61.5 43 104.5t104.5 43t104.5 -43t43 -104.5t-43 -104.5t-104.5 -43t-104.5 43t-43 104.5zM500 1159.5q0 61.5 43 104.5t104.5 43t104.5 -43t43 -104.5t-43 -104.5t-104.5 -43t-104.5 43t-43 104.5z"/>
<glyph unicode="ø" horiz-adv-x="1153" d="M80 522q0 246 122 401.5t373 155.5q129 0 222 -43l55 88h205l-119 -190q131 -150 131 -412q0 -242 -123 -397.5t-371 -155.5q-125 0 -219 41l-55 -86h-205l117 187q-133 147 -133 411zM348 522q0 -102 21 -166l305 486q-39 23 -99 22q-227 0 -227 -342zM477 205 q41 -20 98 -21q106 0 166 84t60 254q0 98 -19 166z"/>
<glyph unicode="ù" horiz-adv-x="1173" d="M131 356v693h266v-617q0 -121 27 -168t100 -47q94 0 244 102v730h266v-1049h-250v102q-193 -133 -346 -133q-160 0 -233.5 96t-73.5 291zM244 1569h284l220 -334h-197z"/>
<glyph unicode="ú" horiz-adv-x="1173" d="M131 356v693h266v-617q0 -121 27 -168t100 -47q94 0 244 102v730h266v-1049h-250v102q-193 -133 -346 -133q-160 0 -233.5 96t-73.5 291zM420 1235l219 334h285l-308 -334h-196z"/>
<glyph unicode="û" horiz-adv-x="1173" d="M131 356v693h266v-617q0 -121 27 -168t100 -47q94 0 244 102v730h266v-1049h-250v102q-193 -133 -346 -133q-160 0 -233.5 96t-73.5 291zM242 1235l221 334h248l219 -334h-197l-147 168l-148 -168h-196z"/>
<glyph unicode="ü" horiz-adv-x="1173" d="M131 356v693h266v-617q0 -121 27 -168t100 -47q94 0 244 102v730h266v-1049h-250v102q-193 -133 -346 -133q-160 0 -233.5 96t-73.5 291zM244 1382.5q0 55.5 39 94.5t94 39t94 -39t39 -94.5t-39 -94.5t-94 -39t-94 39t-39 94.5zM645 1382.5q0 55.5 39 94.5t94.5 39 t94 -39t38.5 -94.5t-38.5 -94.5t-94 -39t-94.5 39t-39 94.5z"/>
<glyph unicode="ý" horiz-adv-x="1058" d="M-20 -360l61 208q66 -29 156 -28q66 0 103.5 37t78.5 135l20 49l-379 1008h281l227 -689l246 689h268l-434 -1135q-63 -168 -162.5 -238.5t-248.5 -70.5q-113 0 -217 35zM385 1235l219 334h285l-307 -334h-197z"/>
<glyph unicode="þ" horiz-adv-x="1171" d="M139 -395v1884h267v-510q141 100 296 100q195 0 291.5 -147.5t96.5 -399.5q0 -254 -121 -408.5t-318 -154.5q-150 0 -245 45v-409h-267zM406 229q88 -39 174 -39q109 0 172 89.5t63 248.5q0 317 -205 318q-96 0 -204 -90v-527z"/>
<glyph unicode="ÿ" horiz-adv-x="1058" d="M-20 -360l61 208q66 -29 156 -28q66 0 103.5 37t78.5 135l20 49l-379 1008h281l227 -689l246 689h268l-434 -1135q-63 -168 -162.5 -238.5t-248.5 -70.5q-113 0 -217 35zM188 1382.5q0 55.5 39 94.5t94.5 39t94.5 -39t39 -94.5t-39 -94.5t-94.5 -39t-94.5 39t-39 94.5z M590 1382.5q0 55.5 39 94.5t94 39t94 -39t39 -94.5t-39 -94.5t-94 -39t-94 39t-39 94.5z"/>
<glyph unicode="Œ" horiz-adv-x="1918" d="M106 743q0 776 633 777q125 0 224 -31h858v-250h-625v-342h559v-246h-559v-401h625v-250h-858q-98 -31 -224 -31q-633 0 -633 774zM410 743.5q0 -270.5 79.5 -401.5t249.5 -131q104 0 168 33v1001q-68 33 -168 33q-170 0 -249.5 -132t-79.5 -402.5z"/>
<glyph unicode="œ" horiz-adv-x="1816" d="M82 522q0 246 122 401.5t374 155.5q236 0 348 -178q117 178 358 178q223 0 339 -134t116 -376v-137h-676q16 -242 237 -242q145 0 254 76l134 -192q-145 -104 -383 -105q-248 0 -381 176q-49 -82 -141.5 -129t-204.5 -47q-170 0 -285 78t-163 198.5t-48 276.5zM356 522 q0 -332 222 -332q219 0 219 332q0 336 -219 336q-222 0 -222 -336zM1063 625h422q0 106 -51.5 173.5t-145.5 67.5q-207 1 -225 -241z"/>
<glyph unicode="Ÿ" horiz-adv-x="1308" d="M25 1489h323l311 -610l322 610h303l-487 -887v-602h-289v586zM319 1734.5q0 55.5 39 94.5t94.5 39t94.5 -39t39 -94.5t-39 -94t-94.5 -38.5t-94.5 38.5t-39 94zM721 1734.5q0 55.5 39 94.5t94 39t94 -39t39 -94.5t-39 -94t-94 -38.5t-94 38.5t-39 94z"/>
<glyph unicode="ˆ" horiz-adv-x="716" d="M14 1235l222 334h247l219 -334h-196l-148 168l-147 -168h-197z"/>
<glyph unicode="˜" horiz-adv-x="716" d="M-16 1264q4 121 62 197.5t173 76.5q72 0 159 -48t114 -48q33 0 56 30.5t25 65.5h158q-18 -274 -237 -274q-76 0 -158 49t-113 49q-37 0 -57.5 -29.5t-22.5 -68.5h-159z"/>
<glyph unicode="–" horiz-adv-x="1024" d="M-12 420v209h1048v-209h-1048z"/>
<glyph unicode="—" horiz-adv-x="2048" d="M-12 420v209h2072v-209h-2072z"/>
<glyph unicode="‘" horiz-adv-x="559" d="M123 1075q0 195 180 445l109 -64q-41 -57 -78 -135t-39 -123q61 -2 101 -48t40 -110q0 -66 -43 -110.5t-106 -44.5q-78 0 -121 54t-43 136z"/>
<glyph unicode="’" horiz-adv-x="559" d="M123 1364q0 66 43 111t106 45q78 0 121 -54.5t43 -136.5q0 -195 -180 -444l-109 63q41 57 78 135t39 123q-61 2 -101 48.5t-40 109.5z"/>
<glyph unicode="‚" horiz-adv-x="559" d="M123 127q0 66 43 111t106 45q78 0 121 -54.5t43 -136.5q0 -195 -180 -444l-109 63q41 57 78 135t39 123q-61 2 -101 48.5t-40 109.5z"/>
<glyph unicode="“" horiz-adv-x="1024" d="M123 1075q0 195 180 445l109 -64q-41 -57 -78 -135t-39 -123q61 -2 101 -48t40 -110q0 -66 -43 -110.5t-106 -44.5q-78 0 -121 54t-43 136zM588 1075q0 195 180 445l109 -64q-41 -57 -78 -135t-39 -123q61 -2 101 -48t40 -110q0 -66 -43 -110.5t-106 -44.5q-78 0 -121 54 t-43 136z"/>
<glyph unicode="”" horiz-adv-x="1024" d="M123 1364q0 66 43 111t106 45q78 0 121 -54.5t43 -136.5q0 -195 -180 -444l-109 63q41 57 78 135t39 123q-61 2 -101 48.5t-40 109.5zM588 1364q0 66 43 111t106 45q78 0 121 -54.5t43 -136.5q0 -195 -180 -444l-109 63q41 57 78 135t39 123q-61 2 -101 48.5t-40 109.5z "/>
<glyph unicode="„" horiz-adv-x="1024" d="M123 127q0 66 43 111t106 45q78 0 121 -54.5t43 -136.5q0 -195 -180 -444l-109 63q41 57 78 135t39 123q-61 2 -101 48.5t-40 109.5zM588 127q0 66 43 111t106 45q78 0 121 -54.5t43 -136.5q0 -195 -180 -444l-109 63q41 57 78 135t39 123q-61 2 -101 48.5t-40 109.5z "/>
<glyph unicode="•" horiz-adv-x="841" d="M98 747.5q0 133.5 94.5 227.5t227.5 94t228 -94t95 -227.5t-95 -227.5t-228 -94t-227.5 94t-94.5 227.5z"/>
<glyph unicode="…" horiz-adv-x="2048" d="M184 124.5q0 65.5 45 112t111 46.5t112 -45t46 -111t-45 -112t-111 -46t-112 45t-46 110.5zM866 124.5q0 65.5 45 112t110.5 46.5t112 -45t46.5 -111t-45 -112t-111 -46t-112 45t-46 110.5zM1550 124.5q0 65.5 45 112t111 46.5t112 -45t46 -111t-45 -112t-111 -46 t-112 45t-46 110.5z"/>
<glyph unicode="‹" horiz-adv-x="714" d="M41 524l362 471h271l-371 -471l371 -471h-271z"/>
<glyph unicode="›" horiz-adv-x="714" d="M41 53l371 471l-371 471h270l363 -471l-363 -471h-270z"/>
<glyph unicode="€" d="M8 485v174h117q-2 27 -2 84v56h-115v174h131q78 547 586 547q324 0 475 -277l-213 -141q-33 51 -60.5 84t-81.5 62.5t-120 29.5q-248 0 -299 -305h479l-59 -174h-436v-56q0 -57 2 -84h385l-60 -174h-305q59 -274 293 -274q135 0 281 123l159 -207q-174 -158 -440 -158 q-258 0 -399.5 138.5t-180.5 377.5h-137z"/>
<glyph unicode="™" horiz-adv-x="1626" d="M43 1335v154h600v-154h-209v-592h-182v592h-209zM760 743v746h211l155 -301l152 301h209v-746h-174v453l-137 -272h-99l-143 274v-455h-174z"/>
<glyph unicode="" horiz-adv-x="1050" d="M0 1050h1050v-1050h-1050v1050z"/>
<glyph unicode="ﬁ" horiz-adv-x="1214" d="M25 827v222h163v92q0 86 14.5 148.5t52.5 117.5t113.5 84t190.5 29q86 0 174 -25l-55 -205q-51 18 -88 19q-82 0 -108.5 -35t-26.5 -133v-92h231v-222h-231v-827h-267v827h-163zM793 1370.5q0 61.5 44 105.5t105.5 44t105.5 -44t44 -105.5t-44 -105.5t-105.5 -44 t-105.5 44t-44 105.5zM809 0v1049h266v-1049h-266z"/>
<glyph unicode="ﬂ" horiz-adv-x="1314" d="M25 827v222h163v92q0 86 14.5 148.5t52.5 117.5t113.5 84t190.5 29q88 0 174 -25l-55 -205q-55 18 -88 19q-82 0 -108.5 -35t-26.5 -133v-92h231v-222h-231v-827h-267v827h-163zM799 315v1174h266v-1135q0 -98 18.5 -131t67.5 -33q57 0 102 17l62 -207q-113 -31 -228 -31 q-164 0 -226 83t-62 263z"/>
<glyph unicode="ﬃ" horiz-adv-x="1961" d="M25 827v222h163v92q0 86 14.5 148.5t52.5 117.5t113.5 84t190.5 29q100 0 232 -41l-64 -203q-84 33 -137 33q-82 0 -108.5 -35t-26.5 -133v-92h231v-222h-231v-827h-267v827h-163zM733 827v222h164v92q0 86 14.5 148.5t52 117.5t113.5 84t191 29q100 0 231 -41l-63 -203 q-84 33 -138 33q-82 0 -108.5 -35t-26.5 -133v-92h232v-222h-232v-827h-266v827h-164zM1540 1370.5q0 61.5 44 105.5t105.5 44t105.5 -44t44 -105.5t-44 -105.5t-105.5 -44t-105.5 44t-44 105.5zM1556 0v1049h267v-1049h-267z"/>
<glyph unicode="ﬄ" horiz-adv-x="2064" d="M25 827v222h163v92q0 86 14.5 148.5t52.5 117.5t113.5 84t190.5 29q100 0 232 -41l-64 -203q-84 33 -137 33q-82 0 -108.5 -35t-26.5 -133v-92h231v-222h-231v-827h-267v827h-163zM733 827v222h164v92q0 86 14.5 148.5t52 117.5t113.5 84t191 29q100 0 231 -41l-63 -203 q-84 33 -138 33q-82 0 -108.5 -35t-26.5 -133v-92h232v-222h-232v-827h-266v827h-164zM1548 315v1174h267v-1135q0 -98 18 -131t68 -33q57 0 102 17l61 -207q-113 -31 -227 -31q-164 0 -226.5 83t-62.5 263z"/>
</font>
</defs>
</svg>
